<svg width="50" height="50" viewBox="0 0 50 50" fill="none" xmlns="http://www.w3.org/2000/svg">
<path d="M31.1539 26.0714H25.3848V24.2857H31.1539V26.0714ZM35 33.2143H29.2309V31.4286H35V33.2143ZM33.0769 29.6428H27.3078V27.8571H33.0769V29.6428Z" fill="url(#paint0_linear_38_209)"/>
<path d="M22.5031 26.0714C22.4963 25.318 22.2799 24.5791 21.8749 23.9263C21.4699 23.2734 20.89 22.7289 20.1916 22.3455L27.3078 10.8929L25.6444 10L18.3589 21.7196C17.4648 21.5342 16.5348 21.5598 15.6542 21.7943C14.7735 22.0287 13.9701 22.4644 13.3176 23.0616C9.71768 26.2857 9.99652 33.8232 10.01 34.1429C10.0199 34.3734 10.1256 34.5914 10.3049 34.7512C10.4841 34.911 10.723 35.0002 10.9715 35H25.3857C25.5875 35 25.7842 34.941 25.9479 34.8315C26.1116 34.7219 26.2341 34.5673 26.2979 34.3895C26.3617 34.2117 26.3637 34.0198 26.3035 33.8409C26.2433 33.6621 26.1241 33.5053 25.9626 33.3929C22.5588 31.0214 22.5031 26.1196 22.5031 26.0714ZM17.6253 23.3902C18.3948 23.398 19.1315 23.6811 19.682 24.1805C20.2326 24.6799 20.5545 25.3572 20.581 26.0714C20.581 26.1054 20.5829 26.2571 20.5973 26.4902L14.9243 24.1473C15.298 23.8612 15.7292 23.6469 16.1929 23.5169C16.6566 23.3869 17.1435 23.3438 17.6253 23.3902ZM21.0098 33.2143C20.2413 32.4876 19.7514 31.5464 19.6156 30.5357H17.6926C17.7614 31.486 18.0811 32.4059 18.6233 33.2143H16.4858C16.0904 32.0556 15.8498 30.8561 15.7695 29.6429H13.8465C13.9085 30.8525 14.1231 32.0511 14.4859 33.2143H11.9234C11.9532 31.575 12.2023 27.9536 13.657 25.5777L20.9002 28.5688C21.2482 30.2467 21.9902 31.8328 23.0732 33.2143H21.0098Z" fill="url(#paint1_linear_38_209)"/>
<path d="M0.5 15C0.5 6.99187 6.99187 0.5 15 0.5H35C43.0081 0.5 49.5 6.99187 49.5 15V35C49.5 43.0081 43.0081 49.5 35 49.5H15C6.99187 49.5 0.5 43.0081 0.5 35V15Z" stroke="url(#paint2_linear_38_209)"/>
<defs>
<linearGradient id="paint0_linear_38_209" x1="30.1924" y1="24.2857" x2="30.1924" y2="33.2143" gradientUnits="userSpaceOnUse">
<stop stop-color="#F9548F"/>
<stop offset="1" stop-color="#906CF9"/>
</linearGradient>
<linearGradient id="paint1_linear_38_209" x1="18.6539" y1="10" x2="18.6539" y2="35" gradientUnits="userSpaceOnUse">
<stop stop-color="#F9548F"/>
<stop offset="1" stop-color="#906CF9"/>
</linearGradient>
<linearGradient id="paint2_linear_38_209" x1="25" y1="0" x2="25" y2="50" gradientUnits="userSpaceOnUse">
<stop stop-color="#F9548F"/>
<stop offset="1" stop-color="#906CF9"/>
</linearGradient>
</defs>
</svg>
