<svg width="50" height="50" viewBox="0 0 50 50" fill="none" xmlns="http://www.w3.org/2000/svg">
<path d="M28.7472 30.9166C32.7319 31.7083 35.5556 33.7361 35.5556 36.1111V38.8889H14.4444V36.1111C14.4444 33.7361 17.2681 31.7083 21.2528 30.9166L25 37.5L28.7472 30.9166ZM19.7222 19.4444H30.2778V22.2222C30.2778 23.6956 29.7217 25.1087 28.732 26.1506C27.7422 27.1924 26.3998 27.7778 25 27.7778C23.6002 27.7778 22.2578 27.1924 21.268 26.1506C20.2783 25.1087 19.7222 23.6956 19.7222 22.2222V19.4444ZM19.7222 18.0555L20.2632 12.3611C20.296 12.0173 20.4494 11.6988 20.6934 11.4676C20.9373 11.2365 21.2544 11.1094 21.5826 11.1111H28.4306C29.1035 11.1111 29.6708 11.6528 29.7368 12.3611L30.2778 18.0555H19.7222ZM25 12.5H23.6806V13.8889H22.3611V15.2778H23.6806V16.6667H25V15.2778H26.3194V13.8889H25V12.5Z" stroke="url(#paint0_linear_38_234)"/>
<path d="M0.5 15C0.5 6.99187 6.99187 0.5 15 0.5H35C43.0081 0.5 49.5 6.99187 49.5 15V35C49.5 43.0081 43.0081 49.5 35 49.5H15C6.99187 49.5 0.5 43.0081 0.5 35V15Z" stroke="url(#paint1_linear_38_234)"/>
<defs>
<linearGradient id="paint0_linear_38_234" x1="25" y1="11.1111" x2="25" y2="38.8889" gradientUnits="userSpaceOnUse">
<stop stop-color="#F9548F"/>
<stop offset="1" stop-color="#906CF9"/>
</linearGradient>
<linearGradient id="paint1_linear_38_234" x1="25" y1="0" x2="25" y2="50" gradientUnits="userSpaceOnUse">
<stop stop-color="#F9548F"/>
<stop offset="1" stop-color="#906CF9"/>
</linearGradient>
</defs>
</svg>
