<svg width="50" height="50" viewBox="0 0 50 50" fill="none" xmlns="http://www.w3.org/2000/svg">
<path d="M25 15.7734C25 15.1612 24.8799 14.555 24.6467 13.9894C24.4134 13.4238 24.0714 12.9098 23.6404 12.4769C23.2093 12.044 22.6976 11.7006 22.1344 11.4663C21.5712 11.2321 20.9676 11.1115 20.358 11.1115H15.8128C15.1983 11.1035 14.5882 11.2182 14.0182 11.4489C13.4481 11.6796 12.9293 12.0218 12.4919 12.4554C12.0545 12.8891 11.7072 13.4056 11.4702 13.9752C11.2332 14.5447 11.1111 15.1558 11.1111 15.7731C11.1111 16.3903 11.2332 17.0014 11.4702 17.571C11.7072 18.1405 12.0545 18.657 12.4919 19.0907C12.9293 19.5244 13.4481 19.8665 14.0182 20.0972C14.5882 20.3279 15.1983 20.4426 15.8128 20.4346H16.7025V22.6854C16.7025 22.6854 25 21.5604 25 15.7734ZM20.7744 28.0865C20.7744 29.7918 19.3992 31.1729 17.7013 31.1729C16.0034 31.1729 14.6281 29.7918 14.6281 28.0865C14.6281 26.3813 16.0034 25.0002 17.7013 25.0002C19.3992 25.0002 20.7744 26.3813 20.7744 28.0865ZM17.7013 32.7161C15.5216 32.7161 11.1708 33.8195 11.1708 36.0085V38.8889H24.2317V36.0085C24.2317 33.8187 19.8809 32.7161 17.7013 32.7161ZM32.2987 31.1729C33.9966 31.1729 35.3719 29.7918 35.3719 28.0865C35.3719 26.3813 33.9966 25.0002 32.2987 25.0002C30.6008 25.0002 29.2256 26.3813 29.2256 28.0865C29.2256 29.7918 30.6008 31.1729 32.2987 31.1729ZM32.2987 32.7161C30.1191 32.7161 25.7683 33.8195 25.7683 36.0085V38.8889H38.8292V36.0085C38.8292 33.8187 34.4784 32.7161 32.2987 32.7161ZM31.1786 11.8831C29.9474 11.8831 28.7667 12.3742 27.8962 13.2485C27.0256 14.1228 26.5366 15.3086 26.5366 16.545C26.5366 22.332 33.9121 23.457 33.9121 23.457V21.2062H34.1872C34.8018 21.2142 35.4118 21.0995 35.9819 20.8688C36.5519 20.6381 37.0707 20.296 37.5081 19.8623C37.9455 19.4286 38.2928 18.9121 38.5298 18.3426C38.7668 17.773 38.8889 17.1619 38.8889 16.5447C38.8889 15.9274 38.7668 15.3163 38.5298 14.7467C38.2928 14.1772 37.9455 13.6607 37.5081 13.227C37.0707 12.7933 36.5519 12.4512 35.9819 12.2205C35.4118 11.9898 34.8018 11.8751 34.1872 11.8831H31.1786Z" stroke="url(#paint0_linear_38_198)"/>
<path d="M0.5 15C0.5 6.99187 6.99187 0.5 15 0.5H35C43.0081 0.5 49.5 6.99187 49.5 15V35C49.5 43.0081 43.0081 49.5 35 49.5H15C6.99187 49.5 0.5 43.0081 0.5 35V15Z" stroke="url(#paint1_linear_38_198)"/>
<defs>
<linearGradient id="paint0_linear_38_198" x1="25" y1="11.1111" x2="25" y2="38.8889" gradientUnits="userSpaceOnUse">
<stop stop-color="#F9548F"/>
<stop offset="1" stop-color="#906CF9"/>
</linearGradient>
<linearGradient id="paint1_linear_38_198" x1="25" y1="0" x2="25" y2="50" gradientUnits="userSpaceOnUse">
<stop stop-color="#F9548F"/>
<stop offset="1" stop-color="#906CF9"/>
</linearGradient>
</defs>
</svg>
