<svg width="50" height="50" viewBox="0 0 50 50" fill="none" xmlns="http://www.w3.org/2000/svg">
<path d="M38.8889 20.4761L25 14.4445L11.1111 20.4761L25 26.5077L38.8889 20.4761ZM38.8889 20.4761V29.5235" stroke="url(#paint0_linear_38_218)" stroke-linecap="round" stroke-linejoin="round"/>
<path d="M16.6668 22.8892V31.0319C16.6668 32.2316 17.5448 33.3823 19.1076 34.2306C20.6704 35.079 22.79 35.5556 25.0001 35.5556C27.2103 35.5556 29.3299 35.079 30.8927 34.2306C32.4555 33.3823 33.3335 32.2316 33.3335 31.0319V22.8892" stroke="url(#paint1_linear_38_218)" stroke-linecap="round" stroke-linejoin="round"/>
<path d="M0.5 15C0.5 6.99187 6.99187 0.5 15 0.5H35C43.0081 0.5 49.5 6.99187 49.5 15V35C49.5 43.0081 43.0081 49.5 35 49.5H15C6.99187 49.5 0.5 43.0081 0.5 35V15Z" stroke="url(#paint2_linear_38_218)"/>
<defs>
<linearGradient id="paint0_linear_38_218" x1="25" y1="14.4445" x2="25" y2="29.5235" gradientUnits="userSpaceOnUse">
<stop stop-color="#F9548F"/>
<stop offset="1" stop-color="#906CF9"/>
</linearGradient>
<linearGradient id="paint1_linear_38_218" x1="25.0001" y1="22.8892" x2="25.0001" y2="35.5556" gradientUnits="userSpaceOnUse">
<stop stop-color="#F9548F"/>
<stop offset="1" stop-color="#906CF9"/>
</linearGradient>
<linearGradient id="paint2_linear_38_218" x1="25" y1="0" x2="25" y2="50" gradientUnits="userSpaceOnUse">
<stop stop-color="#F9548F"/>
<stop offset="1" stop-color="#906CF9"/>
</linearGradient>
</defs>
</svg>
