<svg width="50" height="50" viewBox="0 0 50 50" fill="none" xmlns="http://www.w3.org/2000/svg">
<path d="M25 11.1111C17.3419 11.1111 11.1111 17.3419 11.1111 25C11.1111 32.6581 17.3419 38.8889 25 38.8889C32.6581 38.8889 38.8889 32.6581 38.8889 25C38.8889 17.3419 32.6581 11.1111 25 11.1111ZM23.7981 13.3151C23.8408 13.3098 23.8878 13.3183 23.9316 13.3151V14.3162H26.0684V13.3141C28.802 13.5586 31.3628 14.7558 33.3035 16.6965C35.2442 18.6372 36.4413 21.198 36.6859 23.9316H35.6838V26.0683H36.6859C36.4413 28.802 35.2442 31.3628 33.3035 33.3035C31.3628 35.2441 28.802 36.4413 26.0684 36.6859V35.6837H23.9316V36.6859C21.198 36.4413 18.6372 35.2441 16.6965 33.3035C14.7558 31.3628 13.5587 28.802 13.3141 26.0683H14.3162V23.9316H13.3141C13.8184 18.3301 18.2147 13.8782 23.7981 13.3141V13.3151ZM31.5118 18.4893L22.4306 22.4295L18.4883 31.5107L27.5694 27.5705L31.5118 18.4893ZM25 23.3974C25.8547 23.3974 26.6026 24.1453 26.6026 25C26.6026 25.8547 25.8547 26.6025 25 26.6025C24.1453 26.6025 23.3974 25.8547 23.3974 25C23.3974 24.1453 24.1453 23.3974 25 23.3974Z" fill="url(#paint0_linear_38_240)"/>
<path d="M0.5 15C0.5 6.99187 6.99187 0.5 15 0.5H35C43.0081 0.5 49.5 6.99187 49.5 15V35C49.5 43.0081 43.0081 49.5 35 49.5H15C6.99187 49.5 0.5 43.0081 0.5 35V15Z" stroke="url(#paint1_linear_38_240)"/>
<defs>
<linearGradient id="paint0_linear_38_240" x1="25" y1="11.1111" x2="25" y2="38.8889" gradientUnits="userSpaceOnUse">
<stop stop-color="#F9548F"/>
<stop offset="1" stop-color="#906CF9"/>
</linearGradient>
<linearGradient id="paint1_linear_38_240" x1="25" y1="0" x2="25" y2="50" gradientUnits="userSpaceOnUse">
<stop stop-color="#F9548F"/>
<stop offset="1" stop-color="#906CF9"/>
</linearGradient>
</defs>
</svg>
