<svg width="50" height="50" viewBox="0 0 50 50" fill="none" xmlns="http://www.w3.org/2000/svg">
<path d="M18.9183 15.2778C18.3979 15.2778 18.0509 15.7778 18.0509 16.1111V20.2778H16.3159V16.1111C16.3159 15.6111 15.9689 15.2778 15.4485 15.2778C14.928 15.2778 14.581 15.7778 14.581 16.1111V20.2778H12.8461V16.1111C12.8461 15.6111 12.4991 15.2778 11.9786 15.2778C11.4581 15.2778 11.1111 15.7778 11.1111 16.1111V21.6111C11.1111 23.1111 12.3256 24.2778 13.7135 24.4444V36.1111C13.7135 37.1111 14.4075 37.7778 15.4485 37.7778C16.4894 37.7778 17.1834 37.1111 17.1834 36.1111V24.4444C18.5713 24.2778 19.7858 23.1111 19.7858 21.6111V16.1111C19.7858 15.7778 19.4388 15.2778 18.9183 15.2778ZM22.3882 16.1111V26.1111H24.1231V36.1111C24.1231 37.1111 24.8171 37.7778 25.8581 37.7778C26.899 37.7778 27.593 37.1111 27.593 36.1111V11.1111C24.6436 11.1111 22.3882 13.2778 22.3882 16.1111ZM34.5328 14.4444C32.1039 14.4444 30.1954 16.9444 30.1954 19.9444C30.0219 21.9444 31.0629 23.7778 32.7978 24.9444V36.1111C32.7978 37.1111 33.4918 37.7778 34.5328 37.7778C35.5737 37.7778 36.2677 37.1111 36.2677 36.1111V24.9444C38.0026 23.7778 39.0436 21.9444 38.8701 19.9444C38.8701 16.9444 36.9617 14.4444 34.5328 14.4444Z" stroke="url(#paint0_linear_38_205)"/>
<path d="M0.5 15C0.5 6.99187 6.99187 0.5 15 0.5H35C43.0081 0.5 49.5 6.99187 49.5 15V35C49.5 43.0081 43.0081 49.5 35 49.5H15C6.99187 49.5 0.5 43.0081 0.5 35V15Z" stroke="url(#paint1_linear_38_205)"/>
<defs>
<linearGradient id="paint0_linear_38_205" x1="25" y1="11.1111" x2="25" y2="37.7778" gradientUnits="userSpaceOnUse">
<stop stop-color="#F9548F"/>
<stop offset="1" stop-color="#906CF9"/>
</linearGradient>
<linearGradient id="paint1_linear_38_205" x1="25" y1="0" x2="25" y2="50" gradientUnits="userSpaceOnUse">
<stop stop-color="#F9548F"/>
<stop offset="1" stop-color="#906CF9"/>
</linearGradient>
</defs>
</svg>
