<svg width="50" height="50" viewBox="0 0 50 50" fill="none" xmlns="http://www.w3.org/2000/svg">
<path fill-rule="evenodd" clip-rule="evenodd" d="M17.7289 14.7664C18.6812 13.8024 19.8139 13.0372 21.0618 12.5147C22.3097 11.9923 23.6481 11.723 25 11.7223C27.7257 11.7223 30.3417 12.8159 32.2711 14.7664C34.2035 16.7221 35.2872 19.3665 35.2857 22.1222C35.2857 26.8808 32.6594 31.1882 29.9234 34.3683C28.7705 35.702 27.5205 36.9478 26.1837 38.0953C25.7972 38.4284 25.4025 38.7517 25 39.0649C24.5976 38.7515 24.203 38.4281 23.8163 38.0953C22.4796 36.9478 21.2295 35.702 20.0766 34.3683C17.3406 31.1882 14.7143 26.8808 14.7143 22.1222C14.7143 19.3622 15.7994 16.7168 17.7289 14.7664ZM24.5063 40.8432L25 40.1396L25.4937 40.8432C25.3491 40.9452 25.1767 41 25 41C24.8233 41 24.6509 40.9452 24.5063 40.8432ZM24.5063 40.8432L25 40.1396L25.4937 40.8432L25.4971 40.8415L25.5057 40.8354L25.5314 40.8156L25.6326 40.7424C25.7183 40.6787 25.8434 40.5857 26.0011 40.4634C26.3166 40.2206 26.764 39.8632 27.298 39.4042C28.6998 38.2005 30.0105 36.8937 31.2194 35.4947C34.0549 32.2 37 27.4974 37 22.1213C37 18.9093 35.7366 15.8264 33.4874 13.553C32.3757 12.4279 31.0535 11.5347 29.5969 10.9249C28.1403 10.3151 26.578 10.0008 25 10C23.422 10.0007 21.8598 10.3149 20.4032 10.9245C18.9466 11.5342 17.6243 12.4272 16.5126 13.5522C14.2612 15.8308 12.9985 18.9116 13 22.1222C13 27.4974 15.9451 32.2 18.7806 35.4947C19.9895 36.8937 21.3002 38.2005 22.702 39.4042C23.2369 39.8632 23.6834 40.2206 23.9989 40.4634C24.1536 40.5832 24.3099 40.7009 24.4677 40.8165L24.4951 40.8354L24.5029 40.8415L24.5063 40.8432ZM21.5714 22.0559C21.5714 21.1423 21.9327 20.2662 22.5756 19.6202C23.2186 18.9742 24.0907 18.6113 25 18.6113C25.9093 18.6113 26.7814 18.9742 27.4244 19.6202C28.0673 20.2662 28.4286 21.1423 28.4286 22.0559C28.4286 22.9694 28.0673 23.8455 27.4244 24.4915C26.7814 25.1375 25.9093 25.5004 25 25.5004C24.0907 25.5004 23.2186 25.1375 22.5756 24.4915C21.9327 23.8455 21.5714 22.9694 21.5714 22.0559ZM25 16.8891C23.636 16.8891 22.3279 17.4334 21.3635 18.4024C20.399 19.3713 19.8571 20.6855 19.8571 22.0559C19.8571 23.4262 20.399 24.7404 21.3635 25.7093C22.3279 26.6783 23.636 27.2227 25 27.2227C26.364 27.2227 27.6721 26.6783 28.6366 25.7093C29.601 24.7404 30.1429 23.4262 30.1429 22.0559C30.1429 20.6855 29.601 19.3713 28.6366 18.4024C27.6721 17.4334 26.364 16.8891 25 16.8891Z" fill="url(#paint0_linear_90_208)"/>
<path d="M0.5 15C0.5 6.99187 6.99187 0.5 15 0.5H35C43.0081 0.5 49.5 6.99187 49.5 15V35C49.5 43.0081 43.0081 49.5 35 49.5H15C6.99187 49.5 0.5 43.0081 0.5 35V15Z" stroke="url(#paint1_linear_90_208)"/>
<defs>
<linearGradient id="paint0_linear_90_208" x1="25" y1="10" x2="25" y2="41" gradientUnits="userSpaceOnUse">
<stop stop-color="#F9548F"/>
<stop offset="1" stop-color="#906CF9"/>
</linearGradient>
<linearGradient id="paint1_linear_90_208" x1="25" y1="0" x2="25" y2="50" gradientUnits="userSpaceOnUse">
<stop stop-color="#F9548F"/>
<stop offset="1" stop-color="#906CF9"/>
</linearGradient>
</defs>
</svg>
