<svg width="50" height="50" viewBox="0 0 50 50" fill="none" xmlns="http://www.w3.org/2000/svg">
<path d="M33.1667 30.7143V33H19.1667V30.7143C19.1667 30.7143 19.1667 26.1429 26.1667 26.1429C33.1667 26.1429 33.1667 30.7143 33.1667 30.7143ZM29.6667 20.4286C29.6667 19.7505 29.4614 19.0876 29.0768 18.5238C28.6922 17.9599 28.1456 17.5205 27.5061 17.261C26.8665 17.0015 26.1628 16.9336 25.4839 17.0659C24.8049 17.1982 24.1813 17.5247 23.6918 18.0042C23.2023 18.4837 22.869 19.0946 22.7339 19.7597C22.5989 20.4248 22.6682 21.1141 22.9331 21.7406C23.198 22.3671 23.6466 22.9026 24.2222 23.2793C24.7977 23.6561 25.4744 23.8571 26.1667 23.8571C27.0949 23.8571 27.9852 23.4959 28.6415 22.8529C29.2979 22.21 29.6667 21.3379 29.6667 20.4286ZM33.4 26.2114C34.0377 26.7878 34.5519 27.4828 34.9124 28.2559C35.273 29.029 35.4727 29.8647 35.5 30.7143V33H39V30.7143C39 30.7143 39 26.7714 33.4 26.2114ZM32 17C31.6475 17.0002 31.2972 17.0542 30.9617 17.16C31.6442 18.1188 32.0102 19.2596 32.0102 20.4286C32.0102 21.5975 31.6442 22.7383 30.9617 23.6971C31.2972 23.803 31.6475 23.8569 32 23.8571C32.9283 23.8571 33.8185 23.4959 34.4749 22.8529C35.1313 22.21 35.5 21.3379 35.5 20.4286C35.5 19.5193 35.1313 18.6472 34.4749 18.0042C33.8185 17.3612 32.9283 17 32 17ZM20.3333 22.7143H16.8333V19.2857H14.5V22.7143H11V25H14.5V28.4286H16.8333V25H20.3333V22.7143Z" fill="url(#paint0_linear_90_210)"/>
<path d="M0.5 15C0.5 6.99187 6.99187 0.5 15 0.5H35C43.0081 0.5 49.5 6.99187 49.5 15V35C49.5 43.0081 43.0081 49.5 35 49.5H15C6.99187 49.5 0.5 43.0081 0.5 35V15Z" stroke="url(#paint1_linear_90_210)"/>
<defs>
<linearGradient id="paint0_linear_90_210" x1="25" y1="17" x2="25" y2="33" gradientUnits="userSpaceOnUse">
<stop stop-color="#F9548F"/>
<stop offset="1" stop-color="#906CF9"/>
</linearGradient>
<linearGradient id="paint1_linear_90_210" x1="25" y1="0" x2="25" y2="50" gradientUnits="userSpaceOnUse">
<stop stop-color="#F9548F"/>
<stop offset="1" stop-color="#906CF9"/>
</linearGradient>
</defs>
</svg>
