<svg width="50" height="50" viewBox="0 0 50 50" fill="none" xmlns="http://www.w3.org/2000/svg">
<path d="M25 37.7778C24.5833 37.7778 24.1838 37.7006 23.8014 37.5464C23.419 37.3921 23.0778 37.1616 22.7778 36.8549L13.9931 27.8395H17.9167L24.7569 34.8318C24.8032 34.8791 24.844 34.9089 24.8792 34.9212C24.9144 34.9335 24.9546 34.9392 25 34.9383C25.0463 34.9383 25.087 34.9321 25.1222 34.9198C25.1574 34.9075 25.1977 34.8782 25.2431 34.8318L34.5139 25.3194C35.0463 24.7752 35.4514 24.1306 35.7292 23.3857C36.007 22.6408 36.1458 21.8775 36.1458 21.0957C36.0995 19.463 35.5671 18.0607 34.5486 16.889C33.5301 15.7172 32.2569 15.1318 30.7292 15.1327C30.0116 15.1327 29.3227 15.2747 28.6625 15.5586C28.0023 15.8426 27.4296 16.2567 26.9444 16.8009L26.0069 17.8303C25.8912 17.9722 25.7407 18.0849 25.5556 18.1682C25.3704 18.2514 25.1852 18.2926 25 18.2917C24.8148 18.2917 24.6296 18.2505 24.4444 18.1682C24.2593 18.0858 24.0972 17.9732 23.9583 17.8303L23.0208 16.8009C22.5347 16.2567 21.9676 15.8308 21.3194 15.5232C20.6713 15.2155 19.9769 15.0617 19.2361 15.0617C17.9861 15.0617 16.9042 15.4702 15.9903 16.287C15.0764 17.1038 14.4565 18.1151 14.1306 19.321H11.2833C11.6769 17.3097 12.5972 15.6235 14.0444 14.2624C15.4917 12.9013 17.2222 12.2213 19.2361 12.2222C20.3472 12.2222 21.3949 12.447 22.3792 12.8966C23.3634 13.3462 24.237 13.9733 25 14.7778C25.7407 13.9733 26.6032 13.3462 27.5875 12.8966C28.5718 12.447 29.619 12.2222 30.7292 12.2222C33.044 12.2222 34.9829 13.0977 36.5458 14.8488C38.1088 16.5998 38.8898 18.6821 38.8889 21.0957C38.8889 22.2551 38.6921 23.3673 38.2986 24.4321C37.9051 25.4969 37.3148 26.4434 36.5278 27.2716L27.1875 36.8549C26.8866 37.1625 26.5509 37.3935 26.1806 37.5478C25.8102 37.7021 25.4167 37.7787 25 37.7778ZM24.8264 25H11.1111V22.1605H30.3819C30.7755 22.1605 31.1056 22.0242 31.3722 21.7516C31.6389 21.479 31.7713 21.1421 31.7694 20.7407C31.7694 20.3385 31.6361 20.0011 31.3694 19.7285C31.1028 19.4559 30.7736 19.32 30.3819 19.321C30.0579 19.321 29.7685 19.41 29.5139 19.5879C29.2593 19.7658 29.0972 20.02 29.0278 20.3503L26.3542 19.6049C26.6088 18.6821 27.1065 17.9306 27.8472 17.3504C28.588 16.7702 29.4329 16.4805 30.3819 16.4815C31.5394 16.4815 32.5232 16.8956 33.3333 17.7238C34.1435 18.552 34.5486 19.5576 34.5486 20.7407C34.5486 21.9239 34.1435 22.9295 33.3333 23.7577C32.5232 24.5859 31.5394 25 30.3819 25H28.75C28.8194 25.2366 28.8773 25.4676 28.9236 25.6928C28.9699 25.9181 28.9931 26.1604 28.9931 26.4198C28.9931 27.6029 28.588 28.6085 27.7778 29.4367C26.9676 30.2649 25.9838 30.679 24.8264 30.679C23.8773 30.679 23.0324 30.3889 22.2917 29.8087C21.5509 29.2285 21.0532 28.4774 20.7986 27.5556L23.4722 26.8102C23.5417 27.1415 23.7037 27.3956 23.9583 27.5726C24.213 27.7496 24.5023 27.8386 24.8264 27.8395C25.2199 27.8395 25.55 27.7032 25.8167 27.4306C26.0833 27.158 26.2162 26.8211 26.2153 26.4198C26.2153 26.0175 26.0819 25.6801 25.8153 25.4075C25.5486 25.1349 25.2194 24.9991 24.8278 25H24.8264Z" fill="url(#paint0_linear_38_207)"/>
<path d="M0.5 15C0.5 6.99187 6.99187 0.5 15 0.5H35C43.0081 0.5 49.5 6.99187 49.5 15V35C49.5 43.0081 43.0081 49.5 35 49.5H15C6.99187 49.5 0.5 43.0081 0.5 35V15Z" stroke="url(#paint1_linear_38_207)"/>
<defs>
<linearGradient id="paint0_linear_38_207" x1="25" y1="12.2222" x2="25" y2="37.7778" gradientUnits="userSpaceOnUse">
<stop stop-color="#F9548F"/>
<stop offset="1" stop-color="#906CF9"/>
</linearGradient>
<linearGradient id="paint1_linear_38_207" x1="25" y1="0" x2="25" y2="50" gradientUnits="userSpaceOnUse">
<stop stop-color="#F9548F"/>
<stop offset="1" stop-color="#906CF9"/>
</linearGradient>
</defs>
</svg>
