<svg width="50" height="50" viewBox="0 0 50 50" fill="none" xmlns="http://www.w3.org/2000/svg">
<path fill-rule="evenodd" clip-rule="evenodd" d="M25 13.8C24.2707 13.8 23.5712 14.095 23.0555 14.6201C22.5397 15.1452 22.25 15.8574 22.25 16.6H27.75C27.75 15.8574 27.4603 15.1452 26.9445 14.6201C26.4288 14.095 25.7293 13.8 25 13.8ZM21.3618 12.4C22.3311 11.5292 23.6058 11 25 11C26.3942 11 27.6675 11.5292 28.6383 12.4H33.25C33.9793 12.4 34.6788 12.695 35.1945 13.2201C35.7103 13.7452 36 14.4574 36 15.2V36.2C36 36.9426 35.7103 37.6548 35.1945 38.1799C34.6788 38.705 33.9793 39 33.25 39H16.75C16.0207 39 15.3212 38.705 14.8055 38.1799C14.2897 37.6548 14 36.9426 14 36.2V15.2C14 14.4574 14.2897 13.7452 14.8055 13.2201C15.3212 12.695 16.0207 12.4 16.75 12.4H21.3618ZM19.6733 15.2H16.75V36.2H33.25V15.2H30.3267C30.4395 15.648 30.5 16.117 30.5 16.6V18C30.5 18.3713 30.3551 18.7274 30.0973 18.9899C29.8394 19.2525 29.4897 19.4 29.125 19.4H20.875C20.5103 19.4 20.1606 19.2525 19.9027 18.9899C19.6449 18.7274 19.5 18.3713 19.5 18V16.6C19.5 16.117 19.5605 15.648 19.6733 15.2ZM19.5 23.6C19.5 23.2287 19.6449 22.8726 19.9027 22.6101C20.1606 22.3475 20.5103 22.2 20.875 22.2H29.125C29.4897 22.2 29.8394 22.3475 30.0973 22.6101C30.3551 22.8726 30.5 23.2287 30.5 23.6C30.5 23.9713 30.3551 24.3274 30.0973 24.5899C29.8394 24.8525 29.4897 25 29.125 25H20.875C20.5103 25 20.1606 24.8525 19.9027 24.5899C19.6449 24.3274 19.5 23.9713 19.5 23.6ZM19.5 29.2C19.5 28.8287 19.6449 28.4726 19.9027 28.2101C20.1606 27.9475 20.5103 27.8 20.875 27.8H25C25.3647 27.8 25.7144 27.9475 25.9723 28.2101C26.2301 28.4726 26.375 28.8287 26.375 29.2C26.375 29.5713 26.2301 29.9274 25.9723 30.1899C25.7144 30.4525 25.3647 30.6 25 30.6H20.875C20.5103 30.6 20.1606 30.4525 19.9027 30.1899C19.6449 29.9274 19.5 29.5713 19.5 29.2Z" fill="url(#paint0_linear_90_206)"/>
<path d="M0.5 15C0.5 6.99187 6.99187 0.5 15 0.5H35C43.0081 0.5 49.5 6.99187 49.5 15V35C49.5 43.0081 43.0081 49.5 35 49.5H15C6.99187 49.5 0.5 43.0081 0.5 35V15Z" stroke="url(#paint1_linear_90_206)"/>
<defs>
<linearGradient id="paint0_linear_90_206" x1="25" y1="11" x2="25" y2="39" gradientUnits="userSpaceOnUse">
<stop stop-color="#F9548F"/>
<stop offset="1" stop-color="#906CF9"/>
</linearGradient>
<linearGradient id="paint1_linear_90_206" x1="25" y1="0" x2="25" y2="50" gradientUnits="userSpaceOnUse">
<stop stop-color="#F9548F"/>
<stop offset="1" stop-color="#906CF9"/>
</linearGradient>
</defs>
</svg>
