<svg width="50" height="50" viewBox="0 0 50 50" fill="none" xmlns="http://www.w3.org/2000/svg">
<path fill-rule="evenodd" clip-rule="evenodd" d="M32.716 16.013C32.716 14.713 32.2283 13.4661 31.3601 12.5468C30.4918 11.6275 29.3143 11.1111 28.0864 11.1111H21.9136C20.6857 11.1111 19.5082 11.6275 18.6399 12.5468C17.7717 13.4661 17.284 14.713 17.284 16.013H15.7407C14.5129 16.013 13.3353 16.5295 12.4671 17.4488C11.5989 18.3681 11.1111 19.6149 11.1111 20.915V33.9869C11.1111 35.287 11.5989 36.5338 12.4671 37.4531C13.3353 38.3724 14.5129 38.8889 15.7407 38.8889H34.2593C35.4871 38.8889 36.6647 38.3724 37.5329 37.4531C38.4011 36.5338 38.8889 35.287 38.8889 33.9869V20.915C38.8889 19.6149 38.4011 18.3681 37.5329 17.4488C36.6647 16.5295 35.4871 16.013 34.2593 16.013H32.716ZM28.0864 14.3791H21.9136C21.5043 14.3791 21.1118 14.5512 20.8224 14.8576C20.533 15.1641 20.3704 15.5797 20.3704 16.013H29.6296C29.6296 15.5797 29.467 15.1641 29.1776 14.8576C28.8882 14.5512 28.4957 14.3791 28.0864 14.3791ZM15.7407 19.281H34.2593C34.6685 19.281 35.0611 19.4532 35.3505 19.7596C35.6399 20.066 35.8025 20.4816 35.8025 20.915V33.9869C35.8025 34.4203 35.6399 34.8359 35.3505 35.1423C35.0611 35.4487 34.6685 35.6209 34.2593 35.6209H15.7407C15.3315 35.6209 14.9389 35.4487 14.6495 35.1423C14.3601 34.8359 14.1975 34.4203 14.1975 33.9869V20.915C14.1975 20.4816 14.3601 20.066 14.6495 19.7596C14.9389 19.4532 15.3315 19.281 15.7407 19.281Z" fill="url(#paint0_linear_38_192)"/>
<path d="M0.5 15C0.5 6.99187 6.99187 0.5 15 0.5H35C43.0081 0.5 49.5 6.99187 49.5 15V35C49.5 43.0081 43.0081 49.5 35 49.5H15C6.99187 49.5 0.5 43.0081 0.5 35V15Z" stroke="url(#paint1_linear_38_192)"/>
<defs>
<linearGradient id="paint0_linear_38_192" x1="25" y1="11.1111" x2="25" y2="38.8889" gradientUnits="userSpaceOnUse">
<stop stop-color="#F9548F"/>
<stop offset="1" stop-color="#906CF9"/>
</linearGradient>
<linearGradient id="paint1_linear_38_192" x1="25" y1="0" x2="25" y2="50" gradientUnits="userSpaceOnUse">
<stop stop-color="#F9548F"/>
<stop offset="1" stop-color="#906CF9"/>
</linearGradient>
</defs>
</svg>
