<svg width="428" height="742" viewBox="0 0 428 742" fill="none" xmlns="http://www.w3.org/2000/svg">
<g opacity="0.5">
<path opacity="0.75" d="M26.5327 253.799C-26.0662 266.832 -93.3733 209.615 -48.5803 216.196C41.5267 229.434 -47.4165 172.468 -64.2047 160.286C-106.451 129.631 -17.6725 116.482 -10.9223 32.6333C-7.85006 -5.52882 112.195 34.2155 45.6284 76.0413C-20.9379 117.867 39.0291 156.238 77.3334 170.196C118.025 180.129 186.612 210.813 135.429 254.077C71.4504 308.158 92.2813 237.509 26.5327 253.799Z" fill="url(#paint0_linear_127_105)"/>
<path opacity="0.75" d="M288.459 400.14C241.659 454.14 288.626 470.306 317.959 471.64C351.13 471.64 360.63 463.077 386.959 471.64C419.13 482.101 335.959 492.64 448.959 541.64C561.959 590.64 434.459 446.14 509.459 461.64C584.459 477.14 554.459 343.139 496.959 347.139C439.459 351.139 449.959 263.139 475.459 158.639C495.859 75.0395 405.63 82.3 339.959 109.639C304.13 124.556 315.13 165.8 264.959 175.639C212.802 185.868 272.459 251.639 288.459 279.639C304.459 307.639 346.959 332.64 288.459 400.14Z" fill="url(#paint1_linear_127_105)"/>
<path opacity="0.75" d="M52.01 713.434C67.61 790.634 -0.5 736.248 -35.99 788.434C-60.5 824.474 -62.3066 810.941 -130.99 788.434C-217 760.248 -183.116 739.748 -209.99 683.934C-235.99 629.934 -202.99 607.434 -145.99 595.434C-88.99 583.434 -71.99 525.934 -43.49 447.434C-20.69 384.634 -2.5 431.377 57.51 436.934C136.5 444.248 148.21 483.034 99.01 531.434C37.51 591.934 32.51 616.934 52.01 713.434Z" fill="url(#paint2_linear_127_105)"/>
</g>
<defs>
<linearGradient id="paint0_linear_127_105" x1="104.389" y1="54.8183" x2="0.499399" y2="262.338" gradientUnits="userSpaceOnUse">
<stop stop-color="#F9548F"/>
<stop offset="1" stop-color="#906CF9"/>
</linearGradient>
<linearGradient id="paint1_linear_127_105" x1="399.069" y1="91" x2="399.069" y2="551.828" gradientUnits="userSpaceOnUse">
<stop stop-color="#F9548F"/>
<stop offset="1" stop-color="#906CF9"/>
</linearGradient>
<linearGradient id="paint2_linear_127_105" x1="-45.2955" y1="415" x2="-45.2955" y2="810.675" gradientUnits="userSpaceOnUse">
<stop stop-color="#F9548F"/>
<stop offset="1" stop-color="#906CF9"/>
</linearGradient>
</defs>
</svg>
