<svg width="268" height="273" viewBox="0 0 268 273" fill="none" xmlns="http://www.w3.org/2000/svg">
<path d="M206.996 97.6201L242.875 109.605M209.71 89.4967L245.588 101.482M204.283 105.743L226.622 113.206M253.154 93.4748L208.476 78.5496C207.399 78.1897 206.223 78.2725 205.206 78.7798C204.19 79.287 203.417 80.1772 203.057 81.2544L194.012 108.332C193.652 109.409 193.735 110.586 194.242 111.602C194.749 112.618 195.639 113.391 196.717 113.751L198.937 114.492L195.59 124.511L210.12 118.228L241.395 128.676C242.472 129.036 243.648 128.953 244.664 128.446C245.681 127.938 246.454 127.048 246.814 125.971L255.859 98.8933C256.219 97.8161 256.136 96.64 255.629 95.6238C255.122 94.6077 254.232 93.8346 253.154 93.4748Z" stroke="#E9E9E9" stroke-linecap="round" stroke-linejoin="round"/>
<path d="M60.496 93.7682L75.2883 86.2277M58.7887 90.419L73.581 82.8785M62.2033 97.1174L71.4136 92.4224M73.4033 78.0464L54.9828 87.4363C54.5386 87.6627 54.2026 88.0563 54.0487 88.5304C53.8947 89.0046 53.9354 89.5204 54.1618 89.9646L59.8527 101.129C60.0791 101.573 60.4727 101.909 60.9468 102.063C61.4209 102.217 61.9368 102.176 62.3809 101.95L63.2964 101.483L65.402 105.614L67.9071 99.1325L80.8015 92.5595C81.2456 92.3331 81.5816 91.9396 81.7356 91.4655C81.8896 90.9913 81.8489 90.4754 81.6225 90.0313L75.9316 78.8673C75.7052 78.4232 75.3116 78.0872 74.8375 77.9332C74.3633 77.7793 73.8475 77.82 73.4033 78.0464Z" stroke="#E9E9E9" stroke-linecap="round" stroke-linejoin="round"/>
<path d="M116.69 113.219L141.5 110.099M115.984 107.602L140.793 104.482M117.396 118.836L132.844 116.894M143.012 97.5459L112.117 101.431C111.372 101.525 110.695 101.91 110.234 102.503C109.774 103.096 109.568 103.848 109.661 104.593L112.016 123.317C112.11 124.062 112.495 124.739 113.088 125.2C113.681 125.66 114.433 125.866 115.178 125.773L116.713 125.58L117.584 132.508L124.446 124.607L146.073 121.888C146.818 121.794 147.495 121.408 147.956 120.815C148.416 120.222 148.622 119.471 148.528 118.726L146.174 100.001C146.08 99.2565 145.695 98.5793 145.102 98.1188C144.509 97.6583 143.757 97.4522 143.012 97.5459Z" stroke="#E9E9E9" stroke-linecap="round" stroke-linejoin="round"/>
<path d="M74.074 200.998L96.4324 189.802M71.539 195.936L93.8973 184.739M76.6091 206.061L90.5304 199.089M93.6818 177.46L65.8393 191.403C65.168 191.739 64.6577 192.328 64.4208 193.041C64.1838 193.753 64.2395 194.531 64.5757 195.202L73.026 212.076C73.3622 212.747 73.9512 213.258 74.6636 213.495C75.376 213.732 76.1534 213.676 76.8247 213.34L78.2084 212.647L81.335 218.89L85.1774 209.157L104.667 199.397C105.338 199.061 105.849 198.472 106.086 197.759C106.323 197.047 106.267 196.269 105.931 195.598L97.4805 178.724C97.1443 178.053 96.5552 177.542 95.8428 177.305C95.1304 177.068 94.3531 177.124 93.6818 177.46Z" stroke="#E9E9E9" stroke-linecap="round" stroke-linejoin="round"/>
<path d="M182.344 184.793L197.019 190.736M183.69 181.471L198.364 187.413M180.998 188.116L190.136 191.816M201.734 184.266L183.46 176.865C183.019 176.687 182.525 176.691 182.088 176.876C181.65 177.062 181.304 177.413 181.125 177.854L176.64 188.929C176.462 189.37 176.466 189.864 176.651 190.301C176.837 190.739 177.188 191.085 177.629 191.264L178.537 191.631L176.878 195.729L183.111 193.484L195.903 198.664C196.344 198.842 196.838 198.838 197.275 198.653C197.713 198.468 198.059 198.116 198.238 197.675L202.723 186.6C202.901 186.159 202.897 185.666 202.712 185.228C202.526 184.79 202.175 184.444 201.734 184.266Z" stroke="#E9E9E9" stroke-linecap="round" stroke-linejoin="round"/>
</svg>
