<svg width="199" height="119" viewBox="0 0 199 119" fill="none" xmlns="http://www.w3.org/2000/svg">
<path d="M8.32249 11.7899C8.24457 12.0975 8.04764 12.3616 7.77503 12.524C7.50242 12.6864 7.17645 12.7339 6.86885 12.6559C6.56124 12.578 6.29718 12.3811 6.13477 12.1085L1.69284 4.65252C1.53042 4.37991 1.48296 4.05394 1.56089 3.74633C1.63881 3.43873 1.83574 3.17467 2.10835 3.01226C2.38096 2.84985 2.70693 2.80239 3.01453 2.88031C3.32214 2.95824 3.5862 3.15517 3.74861 3.42778L8.19054 10.8837C8.35295 11.1563 8.40042 11.4823 8.32249 11.7899Z" stroke="#F9F9F9" stroke-width="0.5"/>
<path d="M28.205 -0.0552072C28.1271 0.252401 27.9302 0.516455 27.6576 0.678865C27.385 0.841276 27.059 0.88874 26.7514 0.810816C26.4438 0.732892 26.1797 0.535962 26.0173 0.26335L21.5754 -7.19261C21.413 -7.46522 21.3655 -7.79118 21.4434 -8.09879C21.5214 -8.4064 21.7183 -8.67045 21.9909 -8.83286C22.2635 -8.99527 22.5895 -9.04274 22.8971 -8.96481C23.2047 -8.88689 23.4687 -8.68996 23.6312 -8.41735L28.0731 -0.96139C28.2355 -0.688777 28.283 -0.362814 28.205 -0.0552072Z" stroke="#F9F9F9" stroke-width="0.5"/>
<path d="M-2.63731 12.5743L-2.6373 12.5743L-2.63486 12.5729L2.12101 9.73954L4.21402 13.2527C4.67992 14.0348 5.43739 14.5997 6.3198 14.8232C7.20222 15.0468 8.13729 14.9106 8.91931 14.4447C9.70133 13.9788 10.2663 13.2213 10.4898 12.3389C10.7133 11.4565 10.5772 10.5214 10.1113 9.73942L8.01825 6.22621L22.0657 -2.14264L24.1587 1.37056C24.6246 2.15258 25.3821 2.7175 26.2645 2.94104C27.1469 3.16457 28.082 3.02842 28.864 2.56252C29.646 2.09663 30.2109 1.33915 30.4345 0.456739C30.658 -0.425673 30.5218 -1.36074 30.056 -2.14277L27.9629 -5.65597L32.717 -8.48821C32.9814 -8.63951 33.273 -8.73736 33.5752 -8.7762C33.878 -8.81512 34.1856 -8.794 34.4802 -8.71404C34.7749 -8.63408 35.051 -8.49685 35.2926 -8.31018C35.5343 -8.12352 35.7368 -7.89109 35.8886 -7.62615L35.8885 -7.62613L35.8907 -7.62248L52.4591 20.1883L52.4613 20.1919C52.6221 20.4515 52.73 20.7402 52.7792 21.0416C52.8283 21.343 52.8175 21.6511 52.7475 21.9483C52.6775 22.2455 52.5497 22.526 52.3713 22.7738C52.1933 23.021 51.9684 23.2309 51.7094 23.3914L16.2974 44.4884C16.0329 44.6397 15.7413 44.7375 15.4391 44.7764C15.1363 44.8153 14.8287 44.7942 14.5341 44.7142C14.2394 44.6343 13.9633 44.497 13.7217 44.3104C13.48 44.1237 13.2775 43.8913 13.1257 43.6263L13.1258 43.6263L13.1236 43.6227L-3.44484 15.8119L-3.44481 15.8119L-3.44703 15.8083C-3.61061 15.544 -3.71953 15.2496 -3.76734 14.9425C-3.81515 14.6354 -3.80089 14.3218 -3.7254 14.0203C-3.64991 13.7187 -3.51472 13.4354 -3.32782 13.1871C-3.14093 12.9387 -2.90613 12.7304 -2.63731 12.5743ZM27.6624 28.5322L27.9054 28.5948L27.967 28.3515L32.8196 9.19591L32.8246 9.17608L32.8245 9.17606C32.892 8.89904 32.9056 8.61157 32.8645 8.3293C32.8224 8.04029 32.7238 7.76239 32.5743 7.51148C32.4249 7.26057 32.2274 7.04156 31.9933 6.86695C31.7592 6.69235 31.4929 6.56556 31.2098 6.49384C30.9267 6.42212 30.6322 6.40687 30.3432 6.44895C30.0542 6.49103 29.7763 6.58963 29.5254 6.73911C29.2745 6.8886 29.0555 7.08603 28.8809 7.32016C28.7063 7.55428 28.5795 7.8205 28.5078 8.10362L24.6911 23.1699L18.231 21.5334L18.2227 21.5313L18.2143 21.5298C17.6576 21.4286 17.0833 21.5441 16.609 21.8526C16.1347 22.1611 15.7962 22.6393 15.663 23.1892C15.5298 23.7391 15.6118 24.3191 15.8924 24.8105C16.1729 25.3019 16.6307 25.6674 17.1719 25.8323L17.1719 25.8325L17.1825 25.8352L27.6624 28.5322Z" stroke="#F9F9F9" stroke-width="0.5"/>
<path d="M168.353 9.66997C168.279 9.71258 168.191 9.72385 168.108 9.70131C168.025 9.67877 167.955 9.62426 167.912 9.54978C167.869 9.47529 167.858 9.38694 167.881 9.30415L168.785 5.98381C168.807 5.90102 168.862 5.83057 168.936 5.78797C169.011 5.74536 169.099 5.73409 169.182 5.75663C169.265 5.77917 169.335 5.83368 169.378 5.90816C169.42 5.98264 169.431 6.071 169.409 6.15379L168.505 9.47413C168.482 9.55692 168.428 9.62737 168.353 9.66997Z" stroke="#F9F9F9" stroke-width="0.5"/>
<path d="M177.208 12.0806C177.133 12.1232 177.045 12.1345 176.962 12.112C176.879 12.0894 176.809 12.0349 176.766 11.9604C176.724 11.8859 176.712 11.7976 176.735 11.7148L177.639 8.39445C177.661 8.31166 177.716 8.24121 177.79 8.19861C177.865 8.15601 177.953 8.14473 178.036 8.16727C178.119 8.18982 178.189 8.24432 178.232 8.3188C178.274 8.39329 178.286 8.48164 178.263 8.56444L177.359 11.8848C177.337 11.9676 177.282 12.038 177.208 12.0806Z" stroke="#F9F9F9" stroke-width="0.5"/>
<path d="M168.97 20.2214L168.846 20.0031L166.73 16.2706L166.724 16.261L166.725 16.2609C166.605 16.0268 166.58 15.7559 166.653 15.5036C166.727 15.2513 166.894 15.0367 167.121 14.9039C167.348 14.771 167.617 14.7298 167.873 14.7888C168.129 14.8479 168.353 15.0026 168.499 15.2213L168.504 15.2284L168.508 15.2358L169.745 17.3985L174.963 14.4136C175.081 14.3463 175.211 14.3028 175.345 14.2856C175.48 14.2684 175.617 14.2779 175.747 14.3136C175.878 14.3492 176.001 14.4102 176.108 14.4932C176.215 14.5762 176.305 14.6795 176.373 14.7973C176.44 14.915 176.483 15.0448 176.501 15.1793C176.518 15.3139 176.508 15.4504 176.473 15.5813C176.437 15.7122 176.376 15.8347 176.293 15.942C176.212 16.0471 176.111 16.1355 175.996 16.2024L175.996 16.2024L168.97 20.2214ZM168.97 20.2214L169.188 20.0968L175.989 16.2064L168.97 20.2214ZM165.145 7.03528L165.145 7.0353L165.148 7.03605L167.12 7.57303L166.734 8.99198C166.629 9.37884 166.681 9.79171 166.881 10.1397C167.08 10.4878 167.409 10.7425 167.796 10.8478C168.183 10.9531 168.595 10.9004 168.943 10.7014C169.291 10.5023 169.546 10.1731 169.651 9.78625L170.038 8.3673L176.002 9.99119L175.616 11.4101C175.511 11.797 175.563 12.2099 175.762 12.5579C175.962 12.9059 176.291 13.1606 176.678 13.266C177.064 13.3713 177.477 13.3186 177.825 13.1195C178.173 12.9205 178.428 12.5913 178.533 12.2044L178.92 10.7855L180.89 11.3219C180.986 11.3501 181.076 11.3971 181.155 11.4599C181.234 11.5232 181.3 11.6015 181.349 11.6902C181.397 11.7789 181.428 11.8764 181.439 11.977C181.45 12.0777 181.442 12.1795 181.413 12.2768L181.413 12.2768L181.412 12.2809L178.04 24.6657L178.04 24.6657L178.039 24.6698C178.014 24.768 177.97 24.8602 177.91 24.9413C177.849 25.0225 177.773 25.0908 177.686 25.1426C177.599 25.1943 177.503 25.2284 177.402 25.2429C177.303 25.2573 177.202 25.2521 177.104 25.2276L161.337 20.9348C161.24 20.9065 161.15 20.8596 161.072 20.7967C160.993 20.7334 160.927 20.6552 160.878 20.5664C160.829 20.4777 160.798 20.3802 160.787 20.2796C160.776 20.179 160.785 20.0771 160.813 19.9799L160.813 19.9799L160.814 19.9758L164.186 7.59094L164.186 7.59095L164.187 7.58685C164.213 7.48696 164.258 7.39317 164.32 7.31103C164.382 7.2289 164.46 7.16008 164.55 7.10866C164.639 7.05723 164.738 7.02424 164.84 7.01164C164.942 6.99904 165.046 7.00708 165.145 7.03528Z" stroke="#F9F9F9" stroke-width="0.5"/>
<path d="M130.674 86.1951C130.536 86.351 130.342 86.4456 130.134 86.4581C129.926 86.4706 129.721 86.4 129.565 86.2617C129.409 86.1234 129.315 85.9289 129.302 85.7208L128.929 79.5172C128.917 79.3092 128.988 79.1047 129.126 78.9488C129.264 78.7929 129.459 78.6982 129.667 78.6857C129.875 78.6732 130.079 78.7439 130.235 78.8822C130.391 79.0204 130.486 79.215 130.498 79.423L130.871 85.6266C130.883 85.8347 130.813 86.0391 130.674 86.1951Z" stroke="#F9F9F9" stroke-width="0.5"/>
<path d="M147.217 85.2015C147.079 85.3574 146.885 85.452 146.677 85.4645C146.469 85.477 146.264 85.4064 146.108 85.2681C145.952 85.1298 145.858 84.9353 145.845 84.7273L145.472 78.5236C145.46 78.3156 145.531 78.1111 145.669 77.9552C145.807 77.7993 146.002 77.7046 146.21 77.6921C146.418 77.6797 146.622 77.7503 146.778 77.8886C146.934 78.0268 147.029 78.2214 147.041 78.4294L147.414 84.633C147.426 84.8411 147.356 85.0455 147.217 85.2015Z" stroke="#F9F9F9" stroke-width="0.5"/>
<path d="M123.502 83.2066L123.502 83.2066L123.505 83.2064L127.391 82.973L127.562 85.8253C127.602 86.4947 127.907 87.1208 128.409 87.5658C128.911 88.0107 129.569 88.2381 130.238 88.1979C130.908 88.1577 131.534 87.8532 131.979 87.3514C132.424 86.8495 132.651 86.1915 132.611 85.5221L132.439 82.6698L143.986 81.9763L144.157 84.8286C144.197 85.498 144.502 86.1241 145.003 86.5691C145.505 87.014 146.163 87.2414 146.833 87.2012C147.502 87.161 148.128 86.8565 148.573 86.3546C149.018 85.8528 149.246 85.1948 149.205 84.5254L149.034 81.6731L152.918 81.4398C153.127 81.431 153.335 81.4633 153.531 81.5348C153.727 81.6064 153.908 81.7162 154.062 81.8576C154.217 81.9991 154.341 82.1696 154.43 82.3594C154.518 82.5492 154.568 82.7545 154.577 82.9636L154.577 82.9636L154.577 82.9679L155.967 106.107L155.968 106.112C155.984 106.32 155.959 106.53 155.894 106.729C155.828 106.928 155.725 107.112 155.589 107.271C155.452 107.43 155.286 107.561 155.1 107.655C154.914 107.75 154.711 107.807 154.503 107.823L125.04 109.593C124.831 109.601 124.623 109.569 124.427 109.498C124.231 109.426 124.05 109.316 123.896 109.175C123.741 109.033 123.617 108.863 123.528 108.673C123.44 108.483 123.39 108.278 123.381 108.069L123.381 108.069L123.38 108.065L121.991 84.9251L121.991 84.9251L121.99 84.9209C121.974 84.7084 122 84.4949 122.068 84.2928C122.136 84.0907 122.243 83.9042 122.384 83.7444C122.525 83.5846 122.696 83.4546 122.888 83.3623C123.081 83.2699 123.289 83.217 123.502 83.2066ZM137.474 103.306L137.661 103.473L137.828 103.286L147.215 92.6978L147.225 92.6869L147.225 92.6868C147.365 92.5259 147.473 92.3394 147.543 92.1375C147.614 91.931 147.644 91.7125 147.631 91.4944C147.618 91.2764 147.562 91.063 147.467 90.8665C147.371 90.6701 147.238 90.4944 147.074 90.3494C146.911 90.2045 146.721 90.0932 146.514 90.0218C146.308 89.9505 146.089 89.9205 145.871 89.9336C145.653 89.9467 145.44 90.0026 145.243 90.0982C145.047 90.1937 144.871 90.327 144.726 90.4905L137.389 98.7648L133.872 95.6459L133.865 95.6402L133.859 95.635C133.523 95.3765 133.102 95.2558 132.681 95.2978C132.26 95.3398 131.871 95.5412 131.593 95.8609C131.316 96.1805 131.171 96.5941 131.188 97.017C131.206 97.44 131.384 97.8402 131.687 98.1357L131.687 98.1359L131.695 98.1432L137.474 103.306Z" stroke="#F9F9F9" stroke-width="0.5"/>
<path d="M9.89657 90.0102C9.84571 90.041 9.78469 90.0503 9.72694 90.0361C9.66919 90.0219 9.61944 89.9854 9.58863 89.9345C9.55783 89.8837 9.54849 89.8226 9.56267 89.7649L10.2413 87.0017C10.2555 86.9439 10.2921 86.8942 10.3429 86.8634C10.3938 86.8326 10.4548 86.8232 10.5126 86.8374C10.5703 86.8516 10.6201 86.8882 10.6509 86.939C10.6817 86.9899 10.691 87.0509 10.6768 87.1087L9.99817 89.8719C9.98398 89.9296 9.94744 89.9794 9.89657 90.0102Z" stroke="#F9F9F9" stroke-width="0.5"/>
<path d="M17.2651 91.8199C17.2142 91.8507 17.1532 91.8601 17.0955 91.8459C17.0377 91.8317 16.988 91.7951 16.9572 91.7443C16.9263 91.6934 16.917 91.6324 16.9312 91.5746L17.6099 88.8115C17.624 88.7537 17.6606 88.704 17.7115 88.6731C17.7623 88.6423 17.8233 88.633 17.8811 88.6472C17.9388 88.6614 17.9886 88.6979 18.0194 88.7488C18.0502 88.7996 18.0595 88.8607 18.0454 88.9184L17.3667 91.6816C17.3525 91.7394 17.316 91.7891 17.2651 91.8199Z" stroke="#F9F9F9" stroke-width="0.5"/>
<path d="M7.20484 87.9782L8.80419 88.371L8.52448 89.5099C8.44267 89.843 8.49653 90.1949 8.67422 90.4883C8.85191 90.7817 9.13886 90.9925 9.47196 91.0743C9.80506 91.1561 10.157 91.1022 10.4504 90.9246C10.7438 90.7469 10.9546 90.4599 11.0364 90.1268L11.3161 88.988L16.1957 90.1865L15.916 91.3253C15.8342 91.6584 15.8881 92.0104 16.0658 92.3037C16.2435 92.5971 16.5304 92.8079 16.8635 92.8897C17.1966 92.9715 17.5486 92.9177 17.842 92.74C18.1353 92.5623 18.3461 92.2753 18.4279 91.9422L18.7076 90.8034L20.3048 91.1957C20.3795 91.2157 20.4497 91.25 20.5113 91.2969C20.5734 91.3441 20.6256 91.4031 20.6649 91.4706C20.7042 91.538 20.7298 91.6125 20.7403 91.6898C20.7508 91.7671 20.746 91.8458 20.7261 91.9212L20.726 91.9212L20.725 91.9253L18.1936 102.232L18.1936 102.232L18.1926 102.236C18.1753 102.312 18.1432 102.384 18.098 102.448C18.0529 102.512 17.9957 102.566 17.9296 102.607C17.8636 102.649 17.79 102.677 17.7131 102.69C17.6368 102.703 17.5587 102.701 17.4832 102.684L4.36238 99.4614C4.28761 99.4414 4.21746 99.4071 4.15587 99.3602C4.09376 99.313 4.04157 99.254 4.00227 99.1865C3.96298 99.1191 3.93735 99.0446 3.92686 98.9673C3.91636 98.89 3.9212 98.8113 3.94109 98.7359L3.94113 98.7359L3.94214 98.7318L6.47357 88.425L6.4736 88.4251L6.47454 88.4209C6.49218 88.3435 6.52517 88.2703 6.57156 88.2059C6.61796 88.1414 6.67681 88.0869 6.74464 88.0455C6.81247 88.0042 6.8879 87.9769 6.96647 87.9652C7.04505 87.9535 7.12516 87.9577 7.20208 87.9775L7.20208 87.9776L7.20484 87.9782ZM10.5025 98.6004L10.6317 98.8156L10.8463 98.6856L16.3877 95.3295L16.3935 95.326L16.3934 95.326C16.4918 95.2654 16.5776 95.1864 16.646 95.0932C16.7158 94.9982 16.7661 94.8905 16.7942 94.7761C16.8223 94.6616 16.8276 94.5428 16.8098 94.4263C16.792 94.3099 16.7514 94.1981 16.6903 94.0973C16.6293 93.9965 16.549 93.9088 16.4541 93.839C16.3591 93.7693 16.2514 93.7189 16.1369 93.6908C16.0225 93.6627 15.9037 93.6574 15.7872 93.6752C15.6708 93.693 15.5589 93.7336 15.4582 93.7947L11.2435 96.3472L10.1987 94.6222L10.1943 94.6149L10.1894 94.6079C10.058 94.4211 9.86017 94.2915 9.6364 94.2458C9.41264 94.2001 9.17987 94.2417 8.98576 94.3621C8.79166 94.4824 8.6509 94.6724 8.59232 94.8931C8.53375 95.1139 8.56178 95.3487 8.67068 95.5494L8.67047 95.5495L8.6761 95.5589L10.5025 98.6004Z" stroke="#F9F9F9" stroke-width="0.5"/>
<path d="M85.5323 34.9861C85.5042 35.0385 85.4563 35.0775 85.3994 35.0946C85.3425 35.1118 85.281 35.1056 85.2287 35.0774C85.1763 35.0493 85.1372 35.0014 85.1201 34.9445L84.3006 32.2197C84.2835 32.1628 84.2897 32.1014 84.3179 32.049C84.346 31.9966 84.3938 31.9576 84.4508 31.9404C84.5077 31.9233 84.5692 31.9295 84.6215 31.9577C84.6739 31.9858 84.713 32.0336 84.7301 32.0906L85.5495 34.8153C85.5667 34.8723 85.5605 34.9337 85.5323 34.9861Z" stroke="#F9F9F9" stroke-width="0.5"/>
<path d="M92.7983 32.8009C92.7702 32.8532 92.7224 32.8923 92.6654 32.9094C92.6085 32.9265 92.5471 32.9203 92.4947 32.8922C92.4423 32.864 92.4033 32.8162 92.3861 32.7593L91.5667 30.0345C91.5495 29.9776 91.5557 29.9161 91.5839 29.8638C91.6121 29.8114 91.6599 29.7723 91.7168 29.7552C91.7738 29.7381 91.8352 29.7443 91.8876 29.7724C91.9399 29.8006 91.979 29.8484 91.9961 29.9053L92.8156 32.6301C92.8327 32.6871 92.8265 32.7485 92.7983 32.8009Z" stroke="#F9F9F9" stroke-width="0.5"/>
<path d="M82.1815 34.6037L83.7586 34.1294L84.0963 35.2524C84.1951 35.5808 84.4204 35.8566 84.7225 36.019C85.0246 36.1814 85.3788 36.2172 85.7073 36.1184C86.0358 36.0196 86.3115 35.7944 86.4739 35.4923C86.6364 35.1901 86.6721 34.8359 86.5733 34.5074L86.2356 33.3844L91.0473 31.9373L91.3851 33.0603C91.4839 33.3888 91.7091 33.6645 92.0112 33.8269C92.3133 33.9894 92.6676 34.0251 92.996 33.9263C93.3245 33.8275 93.6003 33.6023 93.7627 33.3002C93.9251 32.9981 93.9608 32.6438 93.862 32.3154L93.5243 31.1924L95.0992 30.7187C95.1738 30.6979 95.2517 30.6919 95.3285 30.7009C95.406 30.7101 95.481 30.7344 95.5491 30.7725C95.6172 30.8106 95.6771 30.8617 95.7254 30.923C95.7738 30.9843 95.8095 31.0545 95.8307 31.1296L95.8307 31.1296L95.8319 31.1336L98.8885 41.297L98.8885 41.297L98.8898 41.301C98.9135 41.3754 98.9224 41.4537 98.9159 41.5314C98.9093 41.6092 98.8876 41.6849 98.8518 41.7542C98.816 41.8236 98.7669 41.8852 98.7073 41.9356C98.6482 41.9855 98.5799 42.0234 98.5063 42.0472L85.568 45.9383C85.4934 45.9592 85.4155 45.9652 85.3387 45.9561C85.2612 45.947 85.1863 45.9227 85.1182 45.8846C85.0501 45.8465 84.9901 45.7953 84.9418 45.7341C84.8935 45.6728 84.8577 45.6026 84.8365 45.5275L84.8365 45.5275L84.8353 45.5234L81.7787 35.3601L81.7787 35.3601L81.7774 35.3561C81.7533 35.2804 81.7445 35.2006 81.7517 35.1215C81.7589 35.0424 81.7819 34.9656 81.8193 34.8955C81.8568 34.8254 81.9078 34.7636 81.9696 34.7136C82.0313 34.6636 82.1025 34.6265 82.1788 34.6045L82.1788 34.6045L82.1815 34.6037ZM90.4189 42.077L90.6395 42.1966L90.7584 41.9756L93.8259 36.2694L93.8291 36.2635L93.829 36.2635C93.883 36.1613 93.9167 36.0497 93.9283 35.9347C93.9401 35.8174 93.9287 35.699 93.8948 35.5862C93.8609 35.4734 93.8051 35.3684 93.7305 35.2771C93.656 35.1858 93.5642 35.1102 93.4605 35.0544C93.3567 34.9986 93.2429 34.9638 93.1257 34.952C93.0085 34.9401 92.8901 34.9515 92.7773 34.9854C92.6644 35.0194 92.5594 35.0752 92.4681 35.1497C92.3769 35.2243 92.3012 35.316 92.2454 35.4198L89.9123 39.7598L88.1359 38.8049L88.1284 38.8008L88.1206 38.7973C87.9126 38.7032 87.6764 38.6921 87.4604 38.7665C87.2445 38.8408 87.0651 38.9949 86.9591 39.1972C86.853 39.3994 86.8283 39.6346 86.89 39.8545C86.9517 40.0744 87.0952 40.2623 87.291 40.3799L87.2909 40.3801L87.3005 40.3853L90.4189 42.077Z" stroke="#F9F9F9" stroke-width="0.5"/>
<path d="M185.008 50.9282C185.028 51.1739 184.951 51.4176 184.791 51.6058C184.632 51.7941 184.405 51.9113 184.159 51.9318C183.913 51.9523 183.669 51.8744 183.481 51.7151L178.078 47.1441C177.89 46.9849 177.773 46.7574 177.752 46.5117C177.732 46.2661 177.809 46.0223 177.969 45.8341C178.128 45.6459 178.355 45.5286 178.601 45.5081C178.847 45.4876 179.091 45.5655 179.279 45.7248L184.682 50.2958C184.87 50.455 184.987 50.6825 185.008 50.9282Z" stroke="#F9F9F9" stroke-width="0.5"/>
<path d="M197.197 36.5195C197.218 36.7651 197.14 37.0089 196.981 37.1971C196.821 37.3853 196.594 37.5026 196.348 37.5231C196.103 37.5436 195.859 37.4657 195.671 37.3064L190.267 32.7354C190.079 32.5762 189.962 32.3487 189.941 32.103C189.921 31.8573 189.999 31.6136 190.158 31.4253C190.317 31.2371 190.545 31.1199 190.79 31.0994C191.036 31.0789 191.28 31.1568 191.468 31.316L196.871 35.8871C197.06 36.0463 197.177 36.2738 197.197 36.5195Z" stroke="#F9F9F9" stroke-width="0.5"/>
<path d="M176.846 54.4669L176.846 54.4669L176.847 54.4647L179.733 51.0534L182.244 53.1775C182.82 53.6648 183.566 53.9033 184.318 53.8406C185.07 53.7778 185.766 53.419 186.254 52.8429C186.741 52.2668 186.98 51.5208 186.917 50.7688C186.854 50.0169 186.495 49.3207 185.919 48.8333L183.408 46.7093L191.961 36.5997L194.472 38.7237C195.048 39.211 195.794 39.4496 196.546 39.3868C197.298 39.3241 197.994 38.9652 198.481 38.3892C198.968 37.8131 199.207 37.067 199.144 36.3151C199.082 35.5631 198.723 34.8669 198.147 34.3796L195.636 32.2555L198.52 28.8459C198.68 28.6637 198.874 28.5148 199.091 28.4074C199.309 28.2997 199.546 28.236 199.788 28.2199C200.031 28.2038 200.274 28.2356 200.504 28.3134C200.734 28.3913 200.947 28.5138 201.129 28.6738L201.129 28.6739L201.133 28.6766L221.287 45.7265L221.29 45.7292C221.478 45.883 221.634 46.0722 221.749 46.2863C221.864 46.5003 221.936 46.7349 221.96 46.9766C221.984 47.2183 221.961 47.4625 221.891 47.6951C221.821 47.927 221.706 48.143 221.553 48.3307L199.843 73.9929C199.683 74.1751 199.489 74.3241 199.272 74.4314C199.055 74.5391 198.818 74.6028 198.575 74.6189C198.333 74.6351 198.09 74.6033 197.86 74.5254C197.629 74.4475 197.417 74.325 197.234 74.165L197.234 74.165L197.231 74.1622L177.077 57.1123L177.077 57.1123L177.073 57.1096C176.882 56.9531 176.724 56.7598 176.608 56.5411C176.493 56.3224 176.422 56.0828 176.401 55.8364C176.38 55.59 176.408 55.3418 176.485 55.1066C176.561 54.8714 176.684 54.6539 176.846 54.4669ZM204.413 58.7499L204.663 58.73L204.642 58.4799L203.302 42.4213C203.302 42.4212 203.302 42.4212 203.302 42.4211C203.302 42.4206 203.302 42.4202 203.302 42.4197L203.301 42.4046L203.3 42.4047C203.278 42.1671 203.211 41.9359 203.102 41.7238C202.99 41.5067 202.836 41.3138 202.65 41.1561C202.463 40.9983 202.248 40.8789 202.015 40.8045C201.782 40.7301 201.537 40.7023 201.294 40.7226C201.051 40.7429 200.814 40.8109 200.596 40.9228C200.379 41.0347 200.186 41.1883 200.029 41.3748C199.871 41.5612 199.752 41.7769 199.677 42.0095C199.603 42.2422 199.575 42.4872 199.595 42.7306L200.645 55.315L195.276 55.763L195.267 55.7638L195.259 55.765C194.791 55.8365 194.368 56.0841 194.077 56.4571C193.786 56.8301 193.648 57.3003 193.693 57.7714C193.737 58.2425 193.959 58.6789 194.315 58.9911C194.671 59.3034 195.132 59.4679 195.605 59.451L195.605 59.4513L195.616 59.4504L204.413 58.7499Z" stroke="#F9F9F9" stroke-width="0.5"/>
</svg>
