<svg width="199" height="43" viewBox="0 0 199 43" fill="none" xmlns="http://www.w3.org/2000/svg">
<g clip-path="url(#clip0_662_29)">
<path d="M144 20.5C180 16.9 202.333 -17.6667 209 -32H0V43C4 39.6667 15.2756 29.4514 31.5 20.5C60.5 4.5 99 25 144 20.5Z"  fill="#F9F9F9"/>
<mask id="mask0_662_29" style="mask-type:alpha" maskUnits="userSpaceOnUse" x="0" y="-32" width="209" height="75">
<path d="M144 20.5C180 16.9 202.333 -17.6667 209 -32H0V43C4 39.6667 15.2756 29.4514 31.5 20.5C60.5 4.5 99 25 144 20.5Z" fill="#F9F9F9"/>
</mask>
<g mask="url(#mask0_662_29)">
<path d="M21.008 22.8849C19.3084 23.7446 17.2296 23.0556 16.3649 21.346C15.5002 19.6365 16.177 17.5537 17.8766 16.694C19.5762 15.8344 21.655 16.5234 22.5197 18.2329C23.3844 19.9425 22.7076 22.0253 21.008 22.8849Z" opacity="0.45" stroke="url(#paint0_linear_662_29)" stroke-width="1.5"/>
<path d="M24.8083 5.18002L24.0839 4.70288C24.1905 4.53866 24.3497 4.41593 24.5355 4.35483C24.7212 4.29373 24.9224 4.29789 25.1061 4.36662L24.8083 5.18002ZM30.596 8.98556L31.2156 8.38448C31.3515 8.52606 31.4357 8.70951 31.4545 8.90482C31.4732 9.10012 31.4254 9.29571 31.3188 9.45961L30.596 8.98556ZM34.7567 17.204L34.8024 16.3392C34.9979 16.3504 35.1842 16.4279 35.3306 16.5591C35.477 16.6902 35.5748 16.8672 35.6081 17.061L34.7567 17.204ZM34.391 24.1218L35.2219 24.3624C35.1684 24.5511 35.0525 24.7157 34.8933 24.8291C34.734 24.9425 34.5408 24.998 34.3453 24.9866L34.391 24.1218ZM29.3914 31.8111L30.1608 31.422C30.2497 31.5977 30.2766 31.7982 30.237 31.9907C30.1973 32.1831 30.0936 32.356 29.9427 32.4808L29.3914 31.8111ZM23.2366 34.9281L23.4478 35.7698C23.258 35.8169 23.0575 35.7978 22.8794 35.7155C22.7012 35.6333 22.5559 35.4929 22.4672 35.3173L23.2351 34.9289M14.0762 34.399L14.7999 34.8746C14.6933 35.0388 14.5341 35.1615 14.3483 35.2226C14.1626 35.2837 13.9614 35.2796 13.7777 35.2109L14.0762 34.399ZM8.28858 30.5896L7.66894 31.1907C7.53304 31.0491 7.44882 30.8656 7.43007 30.6703C7.41132 30.475 7.45914 30.2794 7.56572 30.1155L8.28858 30.5896ZM4.12785 22.3712L4.08214 23.2359C3.88661 23.2247 3.70036 23.1472 3.55396 23.0161C3.40757 22.8849 3.30972 22.7079 3.27648 22.5141L4.12785 22.3712ZM4.49273 15.4518L3.66186 15.2112C3.71533 15.0225 3.83122 14.8579 3.99049 14.7445C4.14977 14.6311 4.34298 14.5756 4.53843 14.587L4.49273 15.4518ZM9.49545 7.76478L8.7261 8.15392C8.63764 7.97859 8.61097 7.77859 8.65045 7.58667C8.68992 7.39475 8.79321 7.22226 8.94341 7.09743L9.49545 7.76478ZM15.6487 4.64857L15.4375 3.80689C15.6275 3.75936 15.8282 3.77819 16.0067 3.86029C16.1852 3.9424 16.3308 4.08289 16.4196 4.25866L15.6503 4.6478M29.9763 9.58664C28.4448 7.99215 26.5766 6.76268 24.5105 5.98955L25.1061 4.36662C27.4157 5.23032 29.5034 6.60259 31.2156 8.38448L29.9763 9.58664ZM34.0973 20.6377C34.1554 19.5383 34.0907 18.4353 33.9046 17.3492L35.6073 17.0633C35.8142 18.2772 35.8854 19.5098 35.8197 20.7383L34.0973 20.6377ZM33.5579 23.8844C33.8566 22.8266 34.0365 21.7382 34.0942 20.6392L35.8197 20.7383C35.7556 21.9664 35.5533 23.1835 35.2196 24.3655L33.5579 23.8844ZM23.0239 34.0911C25.1589 33.5615 27.1453 32.5554 28.8355 31.1477L29.9396 32.4824C28.0509 34.0557 25.8313 35.1804 23.4455 35.7729L23.0239 34.0911ZM8.90672 29.9932C10.4382 31.5877 12.3064 32.8171 14.3725 33.5903L13.7769 35.2132C11.4674 34.3494 9.37892 32.9756 7.66665 31.1938L8.90672 29.9932ZM4.78571 18.9421C4.7279 20.0657 4.79579 21.1665 4.97692 22.2313L3.27573 22.5165C3.06868 21.3026 2.99743 20.07 3.0633 18.8415L4.78725 18.9414M5.32516 15.6955C5.02568 16.753 4.84422 17.8423 4.78725 18.9414L3.06484 18.8407C3.12893 17.6126 3.3297 16.3963 3.66342 15.2143L5.32516 15.6955ZM15.8592 5.4887C13.7242 6.01834 11.7378 7.02439 10.0475 8.43214L8.94341 7.09743C10.8321 5.52401 13.0517 4.39933 15.4375 3.80689L15.8592 5.4887ZM16.3268 7.89946L14.8786 5.03616L16.4173 4.25789L17.8655 7.12118L16.3268 7.89946ZM22.3438 7.379L24.0839 4.70288L25.5304 5.65252L23.7926 8.32941L22.3438 7.379ZM31.6156 16.1552L34.8024 16.3392L34.711 18.0687L31.5257 17.8839L31.6156 16.1552ZM28.136 11.1822L29.8754 8.50841L31.3227 9.4596L29.5833 12.1334L28.136 11.1822ZM28.6221 32.2003L27.1761 29.3416L28.7149 28.5634L30.1608 31.422L28.6221 32.2003ZM31.2515 23.0723L34.4383 23.2563L34.3453 24.9866L31.1616 24.8009L31.2515 23.0723ZM13.3572 33.9211L15.0966 31.2434L16.5439 32.1946L14.8045 34.8723L13.3572 33.9211ZM22.4711 35.3173L21.0229 32.454L22.5616 31.6757L24.0098 34.539L22.4711 35.3173ZM4.17356 21.5064L7.36037 21.6905L7.26896 23.42L4.08214 23.2359L4.17356 21.5064ZM7.56494 30.114L9.30434 27.4441L10.7516 28.3953L9.01226 31.0691L7.56496 30.1179M10.172 11.0126L8.7261 8.15392L10.2648 7.37564L11.7107 10.2343L10.172 11.0126ZM4.53843 14.587L7.72681 14.7742L7.6354 16.5037L4.4478 16.318L4.53843 14.587ZM11.7107 10.2343C13.2169 13.2121 10.9535 16.6952 7.6354 16.5037L7.72681 14.7742C8.18089 14.8005 8.63329 14.7064 9.03854 14.5013C9.44378 14.2963 9.78757 13.9875 10.0353 13.6061C10.2831 13.2246 10.4261 12.784 10.4499 12.3285C10.4738 11.8729 10.3784 11.4201 10.172 11.0126L11.7107 10.2343ZM7.36037 21.6905C10.6785 21.882 12.562 25.6059 10.7501 28.3922L9.30277 27.441C9.55055 27.0598 9.69365 26.6193 9.7177 26.164C9.74175 25.7086 9.64591 25.2543 9.43979 24.8468C9.23368 24.4393 8.92455 24.0929 8.54349 23.8425C8.16244 23.592 7.72286 23.4463 7.26896 23.42L7.36037 21.6905ZM15.0919 31.2457C16.9039 28.4594 21.05 28.6987 22.5569 31.678L21.0182 32.4563C20.8121 32.0488 20.503 31.7024 20.1219 31.4519C19.7408 31.2015 19.3012 31.0558 18.8473 31.0295C18.3933 31.0032 17.9411 31.0973 17.5359 31.3022C17.1308 31.5071 16.787 31.8157 16.5392 32.1969L15.0919 31.2457ZM27.1731 29.3432C25.6669 26.3654 27.9303 22.8823 31.2484 23.0738L31.157 24.8033C30.7029 24.777 30.2505 24.8711 29.8452 25.0761C29.44 25.2812 29.0962 25.59 28.8484 25.9714C28.6007 26.3528 28.4577 26.7935 28.4338 27.249C28.41 27.7046 28.5061 28.1589 28.7126 28.5665L27.1731 29.3432ZM31.5234 17.887C28.2053 17.6954 26.3218 13.9716 28.1337 11.1853L29.581 12.1365C28.494 13.8078 29.6236 16.0412 31.6148 16.1575L31.5234 17.887ZM17.8655 7.12118C18.0719 7.52842 18.3811 7.87452 18.7622 8.1247C19.1433 8.37488 19.5828 8.52034 20.0366 8.54647C20.4904 8.57259 20.9425 8.47847 21.3475 8.27354C21.7524 8.06861 22.096 7.7601 22.3438 7.379L23.7918 8.33174C21.9799 11.118 17.8338 10.8788 16.3268 7.89946L17.8655 7.12118Z" opacity="0.45" fill="url(#paint1_linear_662_29)"/>
<path d="M86.6363 14.0083C85.9166 13.4658 85.7755 12.4391 86.3212 11.7152C86.8669 10.9912 87.8928 10.8441 88.6125 11.3867C89.3322 11.9292 89.4733 12.9559 88.9276 13.6798C88.3819 14.4038 87.3561 14.5508 86.6363 14.0083Z" stroke="url(#paint2_linear_662_29)" stroke-width="0.8" opacity="0.45"/>
<path d="M94.9491 11.9285L95.0006 11.5213C95.0926 11.5323 95.178 11.5743 95.2427 11.6405C95.3074 11.7066 95.3476 11.7929 95.3567 11.8853L94.9491 11.9285ZM94.5403 15.1807L94.9249 15.3185C94.8931 15.4058 94.8328 15.4798 94.7537 15.5285C94.6747 15.5772 94.5816 15.5977 94.4898 15.5866L94.5403 15.1807ZM91.9178 18.6626L92.2946 18.5016C92.3306 18.587 92.3366 18.6823 92.3114 18.7718C92.2862 18.8614 92.2315 18.9398 92.1561 18.9944L91.9178 18.6626ZM88.9032 19.9506L88.9744 20.3537C88.8831 20.3704 88.789 20.3555 88.7076 20.3115C88.6262 20.2675 88.5623 20.197 88.5264 20.1116L88.9032 19.9506ZM84.5942 19.4314L84.92 19.677C84.8639 19.7514 84.7844 19.8047 84.6944 19.828C84.6044 19.8513 84.5093 19.8433 84.4248 19.8053L84.5942 19.4314ZM81.9862 17.4676L81.6727 17.7329C81.6131 17.6621 81.5794 17.573 81.5772 17.4801C81.5749 17.3873 81.6043 17.2963 81.6604 17.222L81.9855 17.4671M80.2997 13.4665L80.2487 13.8731C80.1567 13.862 80.0713 13.82 80.0066 13.7539C79.9419 13.6877 79.9017 13.6014 79.8926 13.5091L80.2997 13.4665ZM80.7101 10.2135L80.3256 10.0757C80.3573 9.98843 80.4177 9.91439 80.4967 9.86567C80.5758 9.81696 80.6688 9.79647 80.7607 9.80754L80.7101 10.2135ZM83.3327 6.73158L82.9559 6.89258C82.9198 6.8072 82.9139 6.71192 82.939 6.62237C82.9642 6.53283 83.019 6.45434 83.0943 6.3998L83.3327 6.73158ZM86.3477 5.44289L86.2766 5.03979C86.3679 5.02314 86.4619 5.03802 86.5433 5.08201C86.6247 5.126 86.6886 5.19648 86.7245 5.28188L86.3477 5.44289ZM90.6564 5.96391L90.3306 5.71832C90.3866 5.64417 90.466 5.59112 90.5558 5.56784C90.6455 5.54457 90.7403 5.55245 90.8247 5.5902L90.6564 5.96391ZM93.2638 7.92724L93.5772 7.66192C93.637 7.73269 93.6709 7.82188 93.6733 7.91483C93.6757 8.00777 93.6464 8.09893 93.5902 8.17332L93.2644 7.92774M94.1557 15.0429C94.5134 14.0598 94.6459 13.0098 94.5432 11.9709L95.3567 11.8853C95.4718 13.0464 95.3245 14.2195 94.9249 15.3185L94.1557 15.0429ZM90.3218 19.099C90.8008 18.8942 91.2558 18.6367 91.6783 18.331L92.155 18.9945C91.6826 19.3357 91.1739 19.6231 90.6384 19.8515L90.3218 19.099ZM88.8303 19.5472C89.3418 19.4534 89.8417 19.3028 90.3205 19.098L90.6384 19.8515C90.1034 20.0805 89.5442 20.2485 88.9726 20.3534L88.8303 19.5472ZM82.2973 17.2026C82.9677 17.9989 83.8094 18.6327 84.76 19.0569L84.4235 19.8043C83.3611 19.3304 82.4204 18.6223 81.6709 17.7326L82.2973 17.2026ZM81.0924 10.3516C80.7347 11.3347 80.6023 12.3847 80.705 13.4236L79.8914 13.5092C79.7764 12.3481 79.9242 11.1744 80.3238 10.0754L81.0924 10.3516ZM84.9264 6.29556C84.4371 6.50542 83.9837 6.76392 83.5692 7.06303L83.0932 6.39996C83.5656 6.05876 84.0742 5.77132 84.6098 5.54299L84.927 6.29605M86.4179 5.84729C85.9062 5.94074 85.4057 6.09094 84.927 6.29605L84.6104 5.54349C85.1454 5.31448 85.7039 5.14597 86.2756 5.0411L86.4179 5.84729ZM92.9509 8.19191C92.2805 7.39561 91.4387 6.76182 90.4881 6.33761L90.8247 5.5902C91.887 6.06412 92.8278 6.77221 93.5772 7.66192L92.9509 8.19191ZM92.0245 8.89353L92.9385 7.68101L93.5901 8.17217L92.6761 9.38469L92.0245 8.89353ZM93.5009 11.3405L95.0006 11.5213L94.8991 12.3338L93.3995 12.1542L93.5009 11.3405ZM91.7079 17.1096L92.2946 18.5016L91.5409 18.8236L90.9549 17.4321L91.7079 17.1096ZM93.0941 14.5942L94.5926 14.7751L94.4906 15.5883L92.992 15.4074L93.0941 14.5942ZM84.2684 19.1858L85.1809 17.9753L85.8325 18.4665L84.92 19.677L84.2684 19.1858ZM88.694 18.3982L89.2807 19.7901L88.5264 20.1116L87.941 18.7207L88.694 18.3982ZM80.3527 13.0614L81.8529 13.2415L81.7508 14.0546L80.2506 13.8745L80.3527 13.0614ZM81.6612 17.2236L82.5751 16.0111L83.2267 16.5023L82.3128 17.7148L81.6612 17.2236ZM83.7095 6.57057L84.2962 7.96252L83.5426 8.28453L82.9559 6.89258L83.7095 6.57057ZM80.7612 9.80688L82.2581 9.98861L82.156 10.8018L80.6575 10.6209L80.7595 9.8077M89.4181 6.92888L90.3306 5.71832L90.9822 6.20949L90.0697 7.42004L89.4181 6.92888ZM86.7245 5.28188L87.3103 6.67515L86.5566 6.99715L85.9704 5.60454L86.7245 5.28188ZM90.0697 7.42004C89.1192 8.68106 87.1676 8.44643 86.5566 6.99715L87.3103 6.67515C87.3938 6.87349 87.5282 7.04601 87.6998 7.17535C87.8715 7.30469 88.0744 7.38629 88.2881 7.41194C88.5018 7.43759 88.7187 7.40639 88.9172 7.32148C89.1157 7.23656 89.2881 7.10159 89.4181 6.92888L90.0697 7.42004ZM84.2962 7.96252C84.9072 9.4118 83.7185 10.9887 82.157 10.8005L82.2591 9.9873C82.4727 10.013 82.6896 9.98189 82.888 9.8971C83.0865 9.81231 83.2594 9.67682 83.3895 9.50426C83.5195 9.33169 83.6022 9.12813 83.6291 8.91402C83.6559 8.69992 83.6261 8.48281 83.5426 8.28453L84.2962 7.96252ZM81.8509 13.24C83.4124 13.4282 84.1758 15.2391 83.2248 16.5008L82.5732 16.0097C82.7033 15.8371 82.7859 15.6335 82.8128 15.4194C82.8396 15.2053 82.8098 14.9882 82.7262 14.7899C82.6427 14.5916 82.5084 14.4191 82.3368 14.2898C82.1653 14.1605 81.9625 14.0789 81.7489 14.0532L81.8509 13.24ZM85.1796 17.9743C86.1301 16.7133 88.0817 16.9479 88.6927 18.3972L87.939 18.7192C87.8555 18.5209 87.7211 18.3483 87.5495 18.219C87.3778 18.0897 87.1749 18.0081 86.9612 17.9824C86.7475 17.9568 86.5306 17.988 86.3321 18.0729C86.1336 18.1578 85.9607 18.2934 85.8307 18.4661L85.1796 17.9743ZM90.9531 17.4318C90.3421 15.9825 91.5308 14.4056 93.0923 14.5939L92.9902 15.407C92.0536 15.2941 91.3407 16.2398 91.7067 17.1098L90.9531 17.4318ZM92.6761 9.38469C92.5462 9.55729 92.4637 9.76085 92.437 9.97491C92.4102 10.189 92.4401 10.406 92.5237 10.6042C92.6073 10.8024 92.7416 10.9748 92.9131 11.104C93.0847 11.2333 93.2874 11.3148 93.5009 11.3405L93.3984 12.1544C91.8369 11.9661 91.0735 10.1552 92.0245 8.89353L92.6761 9.38469Z" fill="url(#paint3_linear_662_29)" opacity="0.45"/>
<path d="M180.354 6.86492C179.476 7.06703 178.599 6.51467 178.396 5.63117C178.192 4.74767 178.74 3.86761 179.618 3.66549C180.496 3.46338 181.373 4.01575 181.576 4.89924C181.78 5.78274 181.233 6.6628 180.354 6.86492Z" stroke="url(#paint4_linear_662_29)" stroke-width="0.8" opacity="0.45"/>
<path d="M184.109 -0.837769L183.83 -1.13916C183.898 -1.20251 183.985 -1.24083 184.077 -1.24783C184.169 -1.25482 184.261 -1.23009 184.338 -1.17767L184.109 -0.837769ZM186.336 1.56715L186.689 1.3613C186.735 1.44177 186.753 1.5356 186.74 1.62745C186.726 1.71931 186.682 1.80374 186.614 1.86694L186.336 1.56715ZM187.315 5.81482L187.434 5.42273C187.523 5.45005 187.599 5.50679 187.652 5.58366C187.704 5.66052 187.729 5.75293 187.722 5.84573L187.315 5.81482ZM186.362 8.95148L186.717 9.15628C186.671 9.23689 186.599 9.29934 186.513 9.33337C186.427 9.3674 186.332 9.37099 186.243 9.34356L186.362 8.95148ZM183.193 11.9168L183.591 11.8253C183.612 11.9161 183.601 12.0113 183.561 12.0952C183.521 12.1791 183.454 12.2468 183.37 12.287L183.193 11.9168ZM180.012 12.6505L180.013 13.0612C179.921 13.0613 179.831 13.0297 179.758 12.9717C179.686 12.9137 179.635 12.8327 179.614 12.742L180.011 12.6507M175.863 11.3682L176.142 11.6688C176.074 11.7321 175.987 11.7705 175.895 11.7775C175.803 11.7845 175.711 11.7597 175.634 11.7073L175.863 11.3682ZM173.637 8.9615L173.284 9.16734C173.237 9.08688 173.22 8.99304 173.233 8.90119C173.247 8.80934 173.291 8.72491 173.358 8.66171L173.637 8.9615ZM172.658 4.71383L172.538 5.10591C172.45 5.0786 172.373 5.02185 172.321 4.94499C172.268 4.86813 172.244 4.77571 172.25 4.68292L172.658 4.71383ZM173.61 1.57636L173.256 1.37157C173.302 1.29095 173.374 1.22851 173.46 1.19448C173.546 1.16045 173.641 1.15685 173.729 1.18428L173.61 1.57636ZM176.781 -1.38755L176.383 -1.29606C176.362 -1.38665 176.373 -1.48155 176.413 -1.56525C176.453 -1.64894 176.52 -1.71647 176.603 -1.75677L176.781 -1.38755ZM179.961 -2.12108L179.959 -2.53172C180.052 -2.53201 180.142 -2.50059 180.215 -2.44261C180.288 -2.38464 180.339 -2.30358 180.359 -2.21276L179.962 -2.12127M185.983 1.77299C185.46 0.866718 184.742 0.0899417 183.88 -0.499647L184.338 -1.17767C185.301 -0.518854 186.104 0.348429 186.689 1.3613L185.983 1.77299ZM186.623 7.31748C186.774 6.81902 186.869 6.30496 186.907 5.78489L187.722 5.84671C187.679 6.42785 187.572 7.00222 187.402 7.55913L186.623 7.31748ZM186.006 8.74785C186.264 8.29582 186.47 7.81618 186.621 7.31785L187.402 7.55913C187.234 8.11604 187.003 8.65226 186.715 9.15744L186.006 8.74785ZM180.009 12.2419C181.05 12.2408 182.077 12.0039 183.013 11.5489L183.369 12.2874C182.322 12.7959 181.175 13.0608 180.012 13.0623L180.009 12.2419ZM173.988 8.75762C174.511 9.66389 175.23 10.4407 176.091 11.0303L175.634 11.7083C174.671 11.0494 173.867 10.1814 173.282 9.16851L173.988 8.75762ZM173.349 3.21313C173.195 3.72273 173.101 4.23614 173.064 4.74591L172.25 4.6839C172.292 4.10275 172.399 3.52837 172.569 2.97148L173.35 3.21294M173.965 1.78276C173.707 2.23464 173.5 2.7145 173.35 3.21294L172.57 2.9713C172.739 2.41438 172.969 1.87834 173.256 1.37317L173.965 1.78276ZM179.962 -1.71124C178.921 -1.71014 177.895 -1.47331 176.959 -1.01834L176.603 -1.75677C177.649 -2.26535 178.796 -2.53022 179.959 -2.53172L179.962 -1.71124ZM179.904 -0.550659L179.563 -2.03039L180.358 -2.21337L180.699 -0.733642L179.904 -0.550659ZM182.727 -0.10714L183.83 -1.13916L184.387 -0.538777L183.285 0.493861L182.727 -0.10714ZM185.991 4.97662L187.434 5.42273L187.196 6.2069L185.754 5.7606L185.991 4.97662ZM184.957 2.29723L186.059 1.26619L186.616 1.86738L185.514 2.89841L184.957 2.29723ZM182.795 12.0083L182.455 10.531L183.251 10.348L183.591 11.8253L182.795 12.0083ZM185.039 8.1131L186.482 8.55922L186.243 9.34356L184.802 8.89709L185.039 8.1131ZM175.587 11.0671L176.69 10.0342L177.247 10.6354L176.144 11.6682L175.587 11.0671ZM179.616 12.7425L179.275 11.2627L180.071 11.0797L180.411 12.5595L179.616 12.7425ZM172.777 4.32175L174.22 4.76786L173.982 5.55202L172.538 5.10591L172.777 4.32175ZM173.358 8.6609L174.46 7.63165L175.017 8.23283L173.915 9.26387L173.358 8.66269M176.723 0.18127L176.383 -1.29606L177.178 -1.47905L177.518 -0.00171194L176.723 0.18127ZM173.729 1.18428L175.173 1.63199L174.935 2.41616L173.491 1.96925L173.729 1.18428ZM177.518 -0.00171194C177.872 1.53721 176.437 2.88059 174.935 2.41616L175.173 1.63199C175.379 1.69559 175.597 1.70368 175.806 1.65545C176.016 1.60722 176.209 1.50438 176.366 1.35725C176.523 1.21013 176.639 1.02391 176.701 0.817338C176.764 0.610764 176.772 0.391911 176.723 0.18127L177.518 -0.00171194ZM174.22 4.76786C175.723 5.23229 176.165 7.15674 175.017 8.23123L174.46 7.63005C174.617 7.48302 174.733 7.29692 174.795 7.09045C174.858 6.88398 174.866 6.66441 174.817 6.45381C174.769 6.24322 174.666 6.04901 174.519 5.89072C174.373 5.73242 174.187 5.61561 173.982 5.55202L174.22 4.76786ZM176.688 10.0348C177.836 8.96029 179.714 9.54057 180.068 11.0803L179.273 11.2633C179.225 11.0527 179.122 10.8585 178.975 10.7002C178.829 10.5419 178.643 10.4251 178.438 10.3615C178.232 10.2979 178.014 10.2898 177.804 10.338C177.595 10.3862 177.402 10.4889 177.245 10.636L176.688 10.0348ZM182.454 10.5313C182.1 8.99242 183.535 7.64904 185.037 8.11347L184.799 8.89764C184.594 8.83404 184.375 8.82595 184.166 8.87418C183.956 8.9224 183.763 9.02525 183.606 9.17238C183.449 9.3195 183.333 9.50571 183.271 9.71229C183.208 9.91886 183.201 10.1385 183.249 10.3492L182.454 10.5313ZM185.752 5.76177C184.25 5.29734 183.807 3.37289 184.955 2.2984L185.512 2.89958C184.823 3.54408 185.089 4.69827 185.99 4.9776L185.752 5.76177ZM180.699 -0.733642C180.748 -0.52314 180.85 -0.329056 180.997 -0.170885C181.144 -0.0127139 181.329 0.103975 181.535 0.16746C181.74 0.230945 181.959 0.238991 182.168 0.19079C182.377 0.14259 182.57 0.0398395 182.727 -0.10714L183.284 0.494844C182.136 1.56934 180.258 0.989063 179.904 -0.550659L180.699 -0.733642Z" fill="url(#paint5_linear_662_29)" opacity="0.45"/>
<path d="M50.4557 0.258276C49.7852 0.354839 49.1692 -0.0700211 49.0798 -0.690675C48.9904 -1.31133 49.4615 -1.89275 50.1321 -1.98931C50.8026 -2.08587 51.4187 -1.66101 51.508 -1.04036C51.5974 -0.419706 51.1263 0.161714 50.4557 0.258276Z" stroke="url(#paint6_linear_662_29)" stroke-width="0.6" opacity="0.45"/>
<path d="M53.8059 -4.8814L53.619 -5.10341C53.674 -5.14388 53.7418 -5.16609 53.8112 -5.16639C53.8807 -5.1667 53.9476 -5.14508 54.0011 -5.10509L53.8059 -4.8814ZM55.2997 -3.10975L55.5779 -3.2347C55.6069 -3.1768 55.6136 -3.11107 55.597 -3.04824C55.5804 -2.98542 55.5414 -2.92923 55.4865 -2.88886L55.2997 -3.10975ZM55.7307 -0.125688L55.8474 -0.390844C55.9117 -0.367615 55.965 -0.324621 55.9987 -0.268921C56.0324 -0.213221 56.0444 -0.148123 56.0329 -0.0843138L55.7307 -0.125688ZM54.7969 1.99557L55.0472 2.15453C55.0071 2.20799 54.949 2.24762 54.8823 2.26692C54.8156 2.28621 54.7443 2.28403 54.6801 2.26072L54.7969 1.99557ZM52.2192 3.88954L52.5227 3.84583C52.532 3.90962 52.5175 3.9749 52.4816 4.03093C52.4458 4.08696 52.3907 4.13041 52.3255 4.15413L52.2192 3.88954ZM49.7905 4.24044L49.7626 4.52435C49.6935 4.51987 49.6285 4.49365 49.5784 4.45001C49.5283 4.40636 49.4961 4.34787 49.487 4.28415L49.7899 4.24052M46.7819 3.15035L46.9687 3.3718C46.9137 3.41226 46.8459 3.43447 46.7765 3.43478C46.7071 3.43508 46.6401 3.41347 46.5866 3.37348L46.7819 3.15035ZM45.2885 1.37748L45.0103 1.50243C44.9814 1.44454 44.9746 1.3788 44.9913 1.31598C45.0079 1.25316 45.0468 1.19696 45.1018 1.1566L45.2885 1.37748ZM44.8576 -1.60658L44.7408 -1.34142C44.6766 -1.36465 44.6232 -1.40764 44.5896 -1.46334C44.5559 -1.51904 44.5438 -1.58414 44.5554 -1.64795L44.8576 -1.60658ZM45.7913 -3.72839L45.541 -3.88736C45.5811 -3.94082 45.6392 -3.98045 45.7059 -3.99974C45.7726 -4.01904 45.8439 -4.01686 45.908 -3.99355L45.7913 -3.72839ZM48.3697 -5.62133L48.0662 -5.57762C48.0571 -5.64125 48.0716 -5.70634 48.1074 -5.76223C48.1431 -5.81811 48.198 -5.8615 48.2629 -5.88527L48.3697 -5.62133ZM50.7978 -5.97214L50.8257 -6.25605C50.895 -6.2517 50.9601 -6.22555 51.0103 -6.18191C51.0605 -6.13827 51.0928 -6.07974 51.102 -6.01594L50.7984 -5.97223M55.0215 -2.9848C54.6951 -3.63688 54.2131 -4.20909 53.6112 -4.65892L54.0011 -5.10509C54.674 -4.60242 55.2129 -3.9635 55.5779 -3.2347L55.0215 -2.9848ZM55.107 0.87894C55.2554 0.54184 55.3631 0.191212 55.428 -0.166411L56.0323 -0.0836648C55.9593 0.315922 55.8387 0.707661 55.6726 1.08427L55.107 0.87894ZM54.5454 1.83734C54.7696 1.53753 54.9576 1.21613 55.1058 0.879115L55.6726 1.08427C55.5071 1.46091 55.2965 1.8202 55.046 2.15526L54.5454 1.83734ZM49.8174 3.95783C50.5951 4.00819 51.379 3.89492 52.1107 3.62642L52.3243 4.1543C51.5066 4.45443 50.6307 4.58115 49.7615 4.52508L49.8174 3.95783ZM45.5657 1.25383C45.8921 1.90592 46.3741 2.47812 46.976 2.92796L46.5861 3.37413C45.9132 2.87144 45.3742 2.23196 45.0092 1.50317L45.5657 1.25383ZM45.4802 -2.60991C45.3291 -2.26523 45.2227 -1.91497 45.1586 -1.56447L44.5549 -1.6473C44.6278 -2.0469 44.7485 -2.43864 44.9146 -2.81524L45.4808 -2.60999M46.0418 -3.56831C45.8174 -3.26862 45.6288 -2.94711 45.4808 -2.60999L44.9152 -2.81532C45.0807 -3.19198 45.2907 -3.55118 45.5412 -3.88623L46.0418 -3.56831ZM50.7698 -5.68879C49.9921 -5.73915 49.2082 -5.62588 48.4765 -5.35739L48.2629 -5.88527C49.0806 -6.18541 49.9565 -6.31214 50.8257 -6.25605L50.7698 -5.68879ZM50.6439 -4.88948L50.4942 -5.92899L51.1013 -6.01641L51.251 -4.9769L50.6439 -4.88948ZM52.7219 -4.44426L53.619 -5.10341L53.9926 -4.66108L53.0961 -4.00145L52.7219 -4.44426ZM54.8008 -0.770076L55.8474 -0.390844L55.614 0.139469L54.5679 -0.23985L54.8008 -0.770076ZM54.2175 -2.67286L55.1142 -3.33137L55.4878 -2.88848L54.5911 -2.22997L54.2175 -2.67286ZM51.9157 3.93325L51.7662 2.89543L52.3733 2.80801L52.5227 3.84583L51.9157 3.93325ZM53.8675 1.35109L54.9142 1.73032L54.6801 2.26072L53.6347 1.88132L53.8675 1.35109ZM46.5969 2.92864L47.494 2.26892L47.8676 2.71182L46.9705 3.37153L46.5969 2.92864ZM49.4883 4.28453L49.3386 3.24502L49.9456 3.1576L50.0953 4.19711L49.4883 4.28453ZM44.9743 -1.87174L46.021 -1.4925L45.7875 -0.96219L44.7408 -1.34142L44.9743 -1.87174ZM45.1017 1.15604L45.9979 0.498742L46.3715 0.941634L45.4749 1.60014L45.1013 1.15725M48.2157 -4.5398L48.0662 -5.57762L48.6733 -5.66504L48.8227 -4.62722L48.2157 -4.5398ZM45.908 -3.99355L46.9549 -3.6132L46.7214 -3.08288L45.6747 -3.46268L45.908 -3.99355ZM48.8227 -4.62722C48.9784 -3.54613 47.8112 -2.68807 46.7214 -3.08288L46.9549 -3.6132C47.104 -3.55914 47.2667 -3.54281 47.4266 -3.56586C47.5865 -3.58891 47.7379 -3.65052 47.8657 -3.7445C47.9935 -3.83847 48.0931 -3.9615 48.1545 -4.10121C48.2159 -4.24092 48.2371 -4.39182 48.2157 -4.5398L48.8227 -4.62722ZM46.021 -1.4925C47.1108 -1.09769 47.3055 0.254234 46.3713 0.94051L45.9977 0.497618C46.1255 0.403707 46.2251 0.280757 46.2866 0.141125C46.348 0.00149247 46.3692 -0.149903 46.3479 -0.297846C46.3266 -0.445789 46.2636 -0.585067 46.1652 -0.701684C46.0668 -0.8183 45.9366 -0.908145 45.7875 -0.96219L46.021 -1.4925ZM47.4921 2.26919C48.4263 1.58291 49.7881 2.07621 49.9438 3.15787L49.3368 3.24529C49.3154 3.09734 49.2524 2.95806 49.1541 2.84144C49.0557 2.72482 48.9254 2.63498 48.7763 2.58094C48.6273 2.52691 48.4646 2.51058 48.3048 2.53359C48.1449 2.55661 47.9935 2.61817 47.8658 2.71208L47.4921 2.26919ZM51.765 2.8956C51.6093 1.81451 52.7765 0.956451 53.8663 1.35126L53.6329 1.88158C53.4837 1.82752 53.321 1.8112 53.1612 1.83425C53.0013 1.85729 52.8498 1.91891 52.722 2.01288C52.5942 2.10686 52.4946 2.22989 52.4332 2.36959C52.3718 2.5093 52.3507 2.66076 52.3722 2.80874L51.765 2.8956ZM54.5668 -0.239113C53.477 -0.633927 53.2823 -1.98585 54.2164 -2.67213L54.59 -2.22923C54.0296 -1.8176 54.1464 -1.00678 54.8002 -0.769427L54.5668 -0.239113ZM51.251 -4.9769C51.2724 -4.82902 51.3355 -4.68982 51.4339 -4.57329C51.5323 -4.45675 51.6625 -4.36699 51.8116 -4.31302C51.9606 -4.25905 52.1232 -4.24276 52.283 -4.26579C52.4428 -4.28883 52.5942 -4.35038 52.7219 -4.44426L53.0956 -4.0008C52.1615 -3.31453 50.7997 -3.80783 50.6439 -4.88948L51.251 -4.9769Z" opacity="0.45" fill="url(#paint7_linear_662_29)"/>
<path d="M146.026 25.4046C145.306 25.5084 144.637 25.0048 144.532 24.2798C144.428 23.5548 144.927 22.8829 145.648 22.7791C146.369 22.6753 147.038 23.1789 147.142 23.9039C147.247 24.6289 146.747 25.3008 146.026 25.4046Z" stroke="url(#paint8_linear_662_29)" stroke-width="0.8" opacity="0.45"/>
<path d="M149.566 19.4545L149.362 19.1931C149.421 19.1466 149.494 19.1216 149.568 19.1222C149.643 19.1227 149.715 19.1488 149.774 19.1962L149.566 19.4545ZM151.198 21.5403L151.496 21.3983C151.528 21.4662 151.536 21.5429 151.519 21.616C151.502 21.689 151.461 21.754 151.402 21.8004L151.198 21.5403ZM151.702 25.0262L151.824 24.7185C151.893 24.7464 151.951 24.7973 151.988 24.8627C152.025 24.9281 152.039 25.0042 152.027 25.0784L151.702 25.0262ZM150.724 27.4879L150.995 27.6765C150.953 27.7384 150.891 27.7838 150.819 27.8055C150.748 27.8271 150.671 27.8236 150.602 27.7956L150.724 27.4879ZM147.973 29.6628L148.299 29.6158C148.31 29.6904 148.295 29.7663 148.257 29.8312C148.22 29.8961 148.161 29.946 148.091 29.9728L147.973 29.6628ZM145.362 30.0401L145.336 30.3709C145.261 30.3647 145.191 30.3333 145.137 30.2818C145.082 30.2302 145.047 30.1616 145.036 30.0871L145.362 30.0402M142.108 28.7292L142.312 28.99C142.254 29.0364 142.181 29.0614 142.106 29.0609C142.031 29.0603 141.959 29.0342 141.901 28.9869L142.108 28.7292ZM140.477 26.642L140.179 26.784C140.147 26.7161 140.139 26.6394 140.156 26.5663C140.173 26.4933 140.214 26.4283 140.273 26.3819L140.477 26.642ZM139.973 23.1561L139.851 23.4638C139.782 23.4359 139.724 23.385 139.687 23.3196C139.65 23.2542 139.636 23.1781 139.648 23.1039L139.973 23.1561ZM140.951 20.6938L140.679 20.5051C140.722 20.4433 140.784 20.3978 140.855 20.3762C140.927 20.3546 141.004 20.3581 141.073 20.3861L140.951 20.6938ZM143.703 18.52L143.376 18.567C143.366 18.4927 143.381 18.417 143.418 18.3523C143.456 18.2876 143.515 18.2377 143.584 18.2108L143.703 18.52ZM146.313 18.1428L146.339 17.8121C146.414 17.8181 146.484 17.8494 146.539 17.901C146.593 17.9525 146.629 18.0212 146.64 18.0957L146.313 18.1427M150.9 21.6824C150.54 20.9176 150.014 20.2439 149.36 19.7114L149.774 19.1962C150.505 19.7913 151.094 20.5435 151.496 21.3983L150.9 21.6824ZM151.043 26.1897C151.198 25.7985 151.31 25.391 151.375 24.9747L152.027 25.0792C151.954 25.5442 151.829 25.9995 151.655 26.4366L151.043 26.1897ZM150.451 27.3C150.688 26.9533 150.887 26.5809 151.042 26.1898L151.655 26.4366C151.482 26.8737 151.26 27.2899 150.994 27.6774L150.451 27.3ZM145.388 29.7109C146.226 29.7799 147.068 29.6581 147.853 29.3545L148.09 29.973C147.213 30.3123 146.272 30.4485 145.335 30.3717L145.388 29.7109ZM140.774 26.5014C141.134 27.2662 141.66 27.9399 142.314 28.4724L141.9 28.9876C141.169 28.3925 140.58 27.6396 140.178 26.7849L140.774 26.5014ZM140.631 21.9941C140.473 22.3941 140.363 22.8012 140.298 23.2092L139.647 23.1046C139.72 22.6396 139.845 22.1843 140.019 21.7472L140.631 21.9941M141.223 20.8838C140.985 21.2303 140.786 21.6028 140.631 21.9941L140.02 21.7471C140.193 21.31 140.414 20.8939 140.68 20.5064L141.223 20.8838ZM146.286 18.4729C145.448 18.404 144.606 18.5257 143.821 18.8293L143.584 18.2108C144.461 17.8715 145.402 17.7352 146.339 17.8121L146.286 18.4729ZM146.161 19.4035L145.986 18.1892L146.639 18.0952L146.814 19.3095L146.161 19.4035ZM148.405 19.95L149.362 19.1931L149.77 19.7139L148.814 20.4714L148.405 19.95ZM150.692 24.2624L151.824 24.7185L151.579 25.3339L150.448 24.8778L150.692 24.2624ZM150.039 22.0356L150.995 21.2794L151.404 21.8009L150.447 22.5571L150.039 22.0356ZM147.647 29.7098L147.472 28.4975L148.125 28.4035L148.299 29.6158L147.647 29.7098ZM149.715 26.724L150.847 27.1801L150.602 27.7956L149.471 27.3393L149.715 26.724ZM141.906 28.4682L142.863 27.7106L143.272 28.2321L142.314 28.9897L141.906 28.4682ZM145.037 30.0876L144.863 28.8733L145.515 28.7793L145.69 29.9936L145.037 30.0876ZM140.096 22.8484L141.228 23.3044L140.983 23.9199L139.851 23.4638L140.096 22.8484ZM140.273 26.3813L141.229 25.6265L141.637 26.1479L140.68 26.9041L140.272 26.3827M143.551 19.7794L143.376 18.567L144.029 18.473L144.204 19.6854L143.551 19.7794ZM141.073 20.3861L142.206 20.8434L141.961 21.4589L140.829 21.0022L141.073 20.3861ZM144.204 19.6854C144.385 20.9483 143.14 21.9336 141.961 21.4589L142.206 20.8434C142.367 20.9084 142.542 20.9296 142.714 20.9048C142.886 20.8801 143.048 20.8102 143.185 20.7023C143.321 20.5944 143.427 20.4522 143.491 20.2901C143.555 20.1279 143.576 19.9522 143.551 19.7794L144.204 19.6854ZM141.228 23.3044C142.406 23.7792 142.634 25.3585 141.637 26.1466L141.229 25.6251C141.365 25.5173 141.471 25.3752 141.535 25.2132C141.6 25.0511 141.62 24.8748 141.595 24.702C141.571 24.5292 141.501 24.3659 141.393 24.2286C141.286 24.0913 141.145 23.9849 140.983 23.9199L141.228 23.3044ZM142.861 27.7109C143.858 26.9228 145.331 27.516 145.513 28.7796L144.861 28.8736C144.836 28.7007 144.766 28.5375 144.659 28.4002C144.551 28.2629 144.41 28.1564 144.248 28.0914C144.087 28.0264 143.912 28.0052 143.74 28.03C143.568 28.0547 143.406 28.1245 143.27 28.2324L142.861 27.7109ZM147.471 28.4977C147.289 27.2348 148.535 26.2494 149.713 26.7242L149.469 27.3396C149.308 27.2746 149.132 27.2534 148.96 27.2782C148.788 27.303 148.626 27.3728 148.49 27.4808C148.353 27.5887 148.248 27.7309 148.184 27.893C148.119 28.0551 148.099 28.2315 148.124 28.4044L147.471 28.4977ZM150.447 24.8786C149.268 24.4038 149.041 22.8246 150.037 22.0365L150.446 22.5579C149.848 23.0306 149.984 23.9778 150.691 24.2632L150.447 24.8786ZM146.814 19.3095C146.839 19.4822 146.909 19.6454 147.016 19.7826C147.124 19.9198 147.265 20.0262 147.426 20.0911C147.587 20.156 147.763 20.1772 147.935 20.1524C148.106 20.1276 148.268 20.0578 148.405 19.95L148.813 20.4721C147.816 21.2602 146.343 20.667 146.161 19.4035L146.814 19.3095Z" fill="url(#paint9_linear_662_29)" opacity="0.45"/>
<path d="M129.368 2.5763C129.029 2.82204 128.553 2.74477 128.306 2.40371C128.059 2.06266 128.133 1.58696 128.472 1.34122C128.812 1.09548 129.287 1.17275 129.534 1.51381C129.781 1.85487 129.707 2.33056 129.368 2.5763Z" stroke="url(#paint10_linear_662_29)" stroke-width="0.4" opacity="0.45"/>
<path d="M129.577 -1.39948L129.403 -1.47786C129.42 -1.51722 129.451 -1.5494 129.489 -1.56913C129.527 -1.58885 129.571 -1.59495 129.613 -1.58642L129.577 -1.39948ZM130.966 -0.774632L131.079 -0.926673C131.114 -0.900663 131.138 -0.863767 131.149 -0.82202C131.16 -0.780274 131.156 -0.736149 131.139 -0.696862L130.966 -0.774632ZM132.155 0.864797L132.135 0.675481C132.177 0.671105 132.221 0.681457 132.257 0.704838C132.293 0.728219 132.321 0.76324 132.335 0.804151L132.155 0.864797ZM132.316 2.37933L132.505 2.40266C132.5 2.44548 132.48 2.48523 132.45 2.51539C132.419 2.54555 132.379 2.56433 132.336 2.56864L132.316 2.37933ZM131.498 4.2225L131.652 4.11126C131.677 4.14631 131.69 4.18891 131.688 4.23206C131.686 4.27522 131.669 4.31635 131.641 4.34871L131.498 4.2225ZM130.27 5.11324L130.345 5.28862C130.306 5.30545 130.262 5.30826 130.22 5.29661C130.179 5.28495 130.142 5.25952 130.117 5.22448L130.27 5.11347M128.263 5.31699L128.437 5.39507C128.419 5.43443 128.389 5.46661 128.351 5.48633C128.313 5.50606 128.269 5.51215 128.227 5.50362L128.263 5.31699ZM126.874 4.6913L126.761 4.84334C126.726 4.81733 126.702 4.78044 126.691 4.73869C126.68 4.69695 126.683 4.65282 126.701 4.61353L126.874 4.6913ZM125.685 3.05187L125.705 3.24119C125.663 3.24557 125.619 3.23521 125.583 3.21183C125.547 3.18845 125.519 3.15343 125.505 3.11252L125.685 3.05187ZM125.524 1.53704L125.335 1.5137C125.34 1.47088 125.359 1.43113 125.39 1.40097C125.421 1.37081 125.461 1.35203 125.504 1.34772L125.524 1.53704ZM126.342 -0.305742L126.189 -0.194504C126.164 -0.229491 126.151 -0.27198 126.153 -0.315018C126.155 -0.358056 126.171 -0.399095 126.199 -0.431418L126.342 -0.305742ZM127.57 -1.19626L127.495 -1.37164C127.534 -1.38857 127.579 -1.39146 127.62 -1.37984C127.662 -1.36823 127.698 -1.34279 127.724 -1.30773L127.57 -1.19649M130.852 -0.62259C130.464 -0.915472 130.016 -1.1174 129.54 -1.21338L129.613 -1.58642C130.145 -1.47925 130.646 -1.25395 131.079 -0.926673L130.852 -0.62259ZM132.131 1.63315C132.105 1.39248 132.053 1.15528 131.975 0.925974L132.334 0.804682C132.422 1.06101 132.48 1.32612 132.508 1.5951L132.131 1.63315ZM132.127 2.35675C132.155 2.11673 132.156 1.87418 132.13 1.6336L132.508 1.5951C132.537 1.86393 132.536 2.1352 132.504 2.40341L132.127 2.35675ZM130.195 4.93893C130.64 4.7497 131.036 4.4622 131.354 4.0978L131.64 4.34915C131.285 4.75641 130.842 5.07777 130.345 5.28937L130.195 4.93893ZM126.988 4.54032C127.376 4.8332 127.824 5.03513 128.299 5.13111L128.227 5.50415C127.695 5.39697 127.194 5.17137 126.76 4.8441L126.988 4.54032ZM125.709 2.28458C125.735 2.5305 125.788 2.76711 125.865 2.99198L125.505 3.11305C125.418 2.85673 125.36 2.59162 125.331 2.32264L125.709 2.28436M125.713 1.56099C125.685 1.80099 125.683 2.04378 125.709 2.28436L125.332 2.32241C125.303 2.05358 125.304 1.78253 125.335 1.51432L125.713 1.56099ZM127.645 -1.0212C127.2 -0.831961 126.803 -0.544466 126.485 -0.180066L126.199 -0.431418C126.555 -0.838686 126.997 -1.16005 127.495 -1.37164L127.645 -1.0212ZM127.83 -0.514112L127.416 -1.08534L127.723 -1.30781L128.137 -0.736589L127.83 -0.514112ZM129.118 -0.836378L129.403 -1.47786L129.75 -1.32202L129.466 -0.680444L129.118 -0.836378ZM131.436 0.746363L132.135 0.675481L132.175 1.05411L131.477 1.12477L131.436 0.746363ZM130.508 -0.212198L130.793 -0.853154L131.14 -0.696998L130.855 -0.0560425L130.508 -0.212198ZM131.345 4.33374L130.931 3.76344L131.238 3.54096L131.652 4.11126L131.345 4.33374ZM131.598 2.26067L132.296 2.18979L132.336 2.56864L131.638 2.63908L131.598 2.26067ZM128.091 5.23824L128.375 4.59645L128.722 4.7526L128.438 5.3944L128.091 5.23824ZM130.118 5.22435L129.704 4.65312L130.011 4.43065L130.425 5.00187L130.118 5.22435ZM125.665 2.86256L126.363 2.79168L126.404 3.17031L125.705 3.24119L125.665 2.86256ZM126.701 4.61322L126.985 3.97311L127.333 4.12926L127.048 4.77022L126.701 4.61406M126.602 0.375793L126.189 -0.194504L126.496 -0.41698L126.909 0.153317L126.602 0.375793ZM125.504 1.34772L126.202 1.27746L126.243 1.65609L125.544 1.72666L125.504 1.34772ZM126.909 0.153317C127.34 0.747389 126.97 1.58226 126.243 1.65609L126.202 1.27746C126.302 1.26737 126.397 1.23121 126.478 1.1726C126.558 1.11399 126.622 1.035 126.663 0.943575C126.703 0.852152 126.719 0.751518 126.708 0.651794C126.698 0.55207 126.661 0.457081 126.602 0.375793L126.909 0.153317ZM126.363 2.79168C127.09 2.71784 127.629 3.46074 127.332 4.12865L126.985 3.97249C127.025 3.88111 127.041 3.78052 127.031 3.68083C127.02 3.58114 126.983 3.48585 126.924 3.40456C126.866 3.32326 126.786 3.25881 126.695 3.2177C126.604 3.17658 126.503 3.16023 126.404 3.17031L126.363 2.79168ZM128.374 4.59712C128.671 3.92921 129.579 3.83693 130.01 4.43132L129.703 4.65379C129.644 4.57249 129.565 4.50805 129.473 4.46693C129.382 4.42581 129.281 4.40948 129.182 4.41956C129.082 4.42964 128.987 4.46579 128.907 4.52437C128.826 4.58294 128.762 4.66189 128.721 4.75327L128.374 4.59712ZM130.931 3.76389C130.5 3.16981 130.87 2.33495 131.597 2.26111L131.638 2.63975C131.538 2.64983 131.443 2.686 131.362 2.74461C131.281 2.80322 131.218 2.88221 131.177 2.97363C131.137 3.06505 131.121 3.16568 131.131 3.26541C131.142 3.36513 131.179 3.46043 131.238 3.54172L130.931 3.76389ZM131.477 1.12553C130.75 1.19936 130.211 0.456459 130.508 -0.211445L130.855 -0.0552887C130.677 0.345347 131 0.790901 131.436 0.746894L131.477 1.12553ZM128.137 -0.736589C128.196 -0.655356 128.275 -0.590977 128.367 -0.54992C128.458 -0.508862 128.559 -0.492571 128.658 -0.502683C128.757 -0.512795 128.852 -0.548954 128.933 -0.607527C129.014 -0.666101 129.078 -0.745027 129.118 -0.836378L129.466 -0.679913C129.169 -0.0120088 128.261 0.0802686 127.83 -0.514112L128.137 -0.736589Z" opacity="0.45" fill="url(#paint11_linear_662_29)"/>
</g>
</g>
<defs>
<linearGradient id="paint0_linear_662_29" x1="17.8766" y1="16.694" x2="21.008" y2="22.8849" gradientUnits="userSpaceOnUse">
<stop stop-color="#F5A0BE"/>
<stop offset="1" stop-color="#7A80FF"/>
</linearGradient>
<linearGradient id="paint1_linear_662_29" x1="12.0051" y1="5.08377" x2="26.881" y2="34.4944" gradientUnits="userSpaceOnUse">
<stop stop-color="#F5A0BE"/>
<stop offset="1" stop-color="#7A80FF"/>
</linearGradient>
<linearGradient id="paint2_linear_662_29" x1="88.6125" y1="11.3867" x2="86.6363" y2="14.0083" gradientUnits="userSpaceOnUse">
<stop stop-color="#F5A0BE"/>
<stop offset="1" stop-color="#7A80FF"/>
</linearGradient>
<linearGradient id="paint3_linear_662_29" x1="92.3187" y1="6.47047" x2="82.9307" y2="18.925" gradientUnits="userSpaceOnUse">
<stop stop-color="#F5A0BE"/>
<stop offset="1" stop-color="#7A80FF"/>
</linearGradient>
<linearGradient id="paint4_linear_662_29" x1="179.618" y1="3.66549" x2="180.354" y2="6.86492" gradientUnits="userSpaceOnUse">
<stop stop-color="#F5A0BE"/>
<stop offset="1" stop-color="#7A80FF"/>
</linearGradient>
<linearGradient id="paint5_linear_662_29" x1="178.238" y1="-2.33452" x2="181.735" y2="12.8647" gradientUnits="userSpaceOnUse">
<stop stop-color="#F5A0BE"/>
<stop offset="1" stop-color="#7A80FF"/>
</linearGradient>
<linearGradient id="paint6_linear_662_29" x1="50.1321" y1="-1.98931" x2="50.4557" y2="0.258276" gradientUnits="userSpaceOnUse">
<stop stop-color="#F5A0BE"/>
<stop offset="1" stop-color="#7A80FF"/>
</linearGradient>
<linearGradient id="paint7_linear_662_29" x1="49.5254" y1="-6.20431" x2="51.063" y2="4.47315" gradientUnits="userSpaceOnUse">
<stop stop-color="#F5A0BE"/>
<stop offset="1" stop-color="#7A80FF"/>
</linearGradient>
<linearGradient id="paint8_linear_662_29" x1="145.648" y1="22.7791" x2="146.026" y2="25.4046" gradientUnits="userSpaceOnUse">
<stop stop-color="#F5A0BE"/>
<stop offset="1" stop-color="#7A80FF"/>
</linearGradient>
<linearGradient id="paint9_linear_662_29" x1="144.939" y1="17.8553" x2="146.736" y2="30.3283" gradientUnits="userSpaceOnUse">
<stop stop-color="#F5A0BE"/>
<stop offset="1" stop-color="#7A80FF"/>
</linearGradient>
<linearGradient id="paint10_linear_662_29" x1="128.472" y1="1.34122" x2="129.368" y2="2.5763" gradientUnits="userSpaceOnUse">
<stop stop-color="#F5A0BE"/>
<stop offset="1" stop-color="#7A80FF"/>
</linearGradient>
<linearGradient id="paint11_linear_662_29" x1="126.794" y1="-0.975056" x2="131.046" y2="4.89234" gradientUnits="userSpaceOnUse">
<stop stop-color="#F5A0BE"/>
<stop offset="1" stop-color="#7A80FF"/>
</linearGradient>
<clipPath id="clip0_662_29">
<rect width="209" height="75" fill="white" transform="matrix(-1 0 0 1 209 -32)"/>
</clipPath>
</defs>
</svg>
