<svg width="26" height="26" viewBox="0 0 26 26" fill="none" xmlns="http://www.w3.org/2000/svg">
<path d="M6.50011 6.93334C6.71559 6.93334 6.92225 6.84203 7.07462 6.6795C7.22699 6.51696 7.3126 6.29652 7.3126 6.06667V0.866667C7.3126 0.636813 7.22699 0.416373 7.07462 0.253841C6.92225 0.0913093 6.71559 0 6.50011 0C6.28462 0 6.07796 0.0913093 5.92559 0.253841C5.77322 0.416373 5.68762 0.636813 5.68762 0.866667V6.06667C5.68762 6.29652 5.77322 6.51696 5.92559 6.6795C6.07796 6.84203 6.28462 6.93334 6.50011 6.93334Z" fill="#525252"/>
<path d="M19.4999 6.93334C19.7154 6.93334 19.922 6.84203 20.0744 6.6795C20.2268 6.51696 20.3124 6.29652 20.3124 6.06667V0.866667C20.3124 0.636813 20.2268 0.416373 20.0744 0.253841C19.922 0.0913093 19.7154 0 19.4999 0C19.2844 0 19.0778 0.0913093 18.9254 0.253841C18.773 0.416373 18.6874 0.636813 18.6874 0.866667V6.06667C18.6874 6.29652 18.773 6.51696 18.9254 6.6795C19.0778 6.84203 19.2844 6.93334 19.4999 6.93334Z" fill="#525252"/>
<path d="M24.5779 3.46665H21.328V6.06665C21.328 6.57233 21.1397 7.0573 20.8045 7.41487C20.4692 7.77244 20.0146 7.97332 19.5405 7.97332C19.0665 7.97332 18.6118 7.77244 18.2766 7.41487C17.9414 7.0573 17.753 6.57233 17.753 6.06665V3.46665H8.28758V6.06665C8.28758 6.57233 8.09925 7.0573 7.76404 7.41487C7.42882 7.77244 6.97417 7.97332 6.5001 7.97332C6.02604 7.97332 5.57139 7.77244 5.23617 7.41487C4.90096 7.0573 4.71263 6.57233 4.71263 6.06665V3.46665H1.46269C1.26933 3.46431 1.0775 3.50334 0.898538 3.58145C0.719575 3.65956 0.557114 3.77516 0.420763 3.92142C0.284412 4.06767 0.176941 4.2416 0.104706 4.43293C0.0324702 4.62425 -0.00306264 4.82909 0.000208851 5.03532V24.4313C-0.00301917 24.6339 0.0312005 24.8352 0.100913 25.0237C0.170626 25.2122 0.274466 25.3842 0.406502 25.5298C0.538539 25.6755 0.696185 25.792 0.870436 25.8727C1.04469 25.9533 1.23213 25.9966 1.42206 26H24.5779C24.7679 25.9966 24.9553 25.9533 25.1296 25.8727C25.3038 25.792 25.4615 25.6755 25.5935 25.5298C25.7255 25.3842 25.8294 25.2122 25.8991 25.0237C25.9688 24.8352 26.003 24.6339 25.9998 24.4313V5.03532C26.003 4.83273 25.9688 4.63144 25.8991 4.44295C25.8294 4.25447 25.7255 4.08248 25.5935 3.93681C25.4615 3.79114 25.3038 3.67464 25.1296 3.59397C24.9553 3.5133 24.7679 3.47004 24.5779 3.46665ZM19.4511 12.636L11.5944 21.0167L7.31259 16.4147C7.12289 16.1921 7.02014 15.9006 7.02537 15.5999C7.0306 15.2991 7.14342 15.0119 7.34072 14.797C7.53803 14.5821 7.80489 14.4558 8.08666 14.444C8.36842 14.4321 8.64377 14.5357 8.85632 14.7333L11.6025 17.6627L17.8749 10.972C17.9779 10.8622 18.1001 10.775 18.2346 10.7156C18.3692 10.6562 18.5134 10.6256 18.659 10.6256C18.8046 10.6256 18.9488 10.6562 19.0833 10.7156C19.2178 10.775 19.3401 10.8622 19.443 10.972C19.546 11.0818 19.6277 11.2122 19.6834 11.3557C19.7391 11.4992 19.7678 11.653 19.7678 11.8083C19.7678 11.9636 19.7391 12.1174 19.6834 12.2609C19.6277 12.4044 19.546 12.5348 19.443 12.6447L19.4511 12.636Z" fill="#525252"/>
</svg>
