<svg width="26" height="26" viewBox="0 0 26 26" fill="none" xmlns="http://www.w3.org/2000/svg">
<path d="M5.90909 14.1818H1.18182C0.472727 14.1818 0 14.6545 0 15.3636V24.8182C0 25.5273 0.472727 26 1.18182 26H5.90909C6.61818 26 7.09091 25.5273 7.09091 24.8182V15.3636C7.09091 14.6545 6.61818 14.1818 5.90909 14.1818ZM24.8182 9.45455H20.0909C19.3818 9.45455 18.9091 9.92727 18.9091 10.6364V24.8182C18.9091 25.5273 19.3818 26 20.0909 26H24.8182C25.5273 26 26 25.5273 26 24.8182V10.6364C26 9.92727 25.5273 9.45455 24.8182 9.45455ZM15.3636 0H10.6364C9.92727 0 9.45455 0.472727 9.45455 1.18182V24.8182C9.45455 25.5273 9.92727 26 10.6364 26H15.3636C16.0727 26 16.5455 25.5273 16.5455 24.8182V1.18182C16.5455 0.472727 16.0727 0 15.3636 0Z" fill="#525252"/>
</svg>
