<svg width="17" height="17" viewBox="0 0 17 17" fill="none" xmlns="http://www.w3.org/2000/svg">
<path d="M8.46372 17C6.29622 17 4.40721 16.2952 2.7967 14.8856C1.18619 13.4775 0.253954 11.7031 0 9.5625H1.07877C1.36901 11.39 2.20521 12.9094 3.58737 14.1206C4.97096 15.3319 6.59641 15.9375 8.46372 15.9375C10.5444 15.9375 12.3093 15.2157 13.7583 13.7721C15.2074 12.3285 15.9323 10.5712 15.933 8.5C15.933 6.42812 15.2081 4.6704 13.7583 3.22681C12.3086 1.78323 10.5437 1.06179 8.46372 1.0625C7.3597 1.0625 6.32183 1.29483 5.35011 1.7595C4.37911 2.22417 3.52193 2.86379 2.77856 3.67837H5.42587V4.74087H0.994476V0.32725H2.06151V2.8645C2.88668 1.96279 3.85342 1.26012 4.96171 0.7565C6.07001 0.252167 7.23734 0 8.46372 0C9.64671 0 10.7557 0.221708 11.7907 0.665125C12.8258 1.10854 13.7299 1.71523 14.5031 2.48519C15.2764 3.25515 15.886 4.15579 16.332 5.18713C16.7773 6.21775 17 7.32204 17 8.5C17 9.67796 16.7773 10.7822 16.332 11.8129C15.8867 12.8435 15.2771 13.7441 14.5031 14.5148C13.7299 15.2848 12.8258 15.8915 11.7907 16.3349C10.7557 16.7783 9.64671 17 8.46372 17ZM11.8814 12.5949L7.99102 8.721V3.1875H9.05806V8.279L12.6369 11.8426L11.8814 12.5949Z" fill="url(#paint0_linear_607_5)"/>
<defs>
<linearGradient id="paint0_linear_607_5" x1="8.5" y1="0" x2="8.5" y2="17" gradientUnits="userSpaceOnUse">
<stop stop-color="#F5A0BE"/>
<stop offset="1" stop-color="#7A80FF"/>
</linearGradient>
</defs>
</svg>
