<svg width="36" height="36" viewBox="0 0 36 36" fill="none" xmlns="http://www.w3.org/2000/svg">
<path d="M34.8774 19.1201C34.7291 19.121 34.582 19.0926 34.4447 19.0366C34.3073 18.9806 34.1824 18.8981 34.0771 18.7938L17.9688 2.70167L1.86047 18.7938C1.64482 18.9782 1.36744 19.0745 1.08374 19.0636C0.800036 19.0526 0.530918 18.9352 0.330163 18.7348C0.129407 18.5344 0.0117988 18.2657 0.000840677 17.9825C-0.0101174 17.6993 0.0863814 17.4224 0.271054 17.2071L17.1797 0.327236C17.3909 0.117643 17.6766 0 17.9744 0C18.2722 0 18.5579 0.117643 18.7691 0.327236L35.6778 17.2071C35.8329 17.3651 35.9379 17.5652 35.9797 17.7824C36.0216 17.9997 35.9983 18.2244 35.9129 18.4285C35.8275 18.6326 35.6838 18.8071 35.4996 18.9301C35.3154 19.0531 35.099 19.1192 34.8774 19.1201Z" fill="#525252"/>
<path d="M17.9688 6.50525L4.44186 20.0541V33.7493C4.44186 34.3462 4.67938 34.9187 5.10218 35.3408C5.52498 35.7629 6.09842 36 6.69634 36H14.587V24.7467H21.3505V36H29.2412C29.8391 36 30.4126 35.7629 30.8354 35.3408C31.2582 34.9187 31.4957 34.3462 31.4957 33.7493V19.9754L17.9688 6.50525Z" fill="#525252"/>
</svg>
